<svg id="svg" version="1.1" xmlns="http://www.w3.org/2000/svg" xmlns:xlink="http://www.w3.org/1999/xlink" width="400" height="400" viewBox="0, 0, 400,400"><g id="svgg"><path id="path0" d="M0.000 200.000 L 0.000 400.000 200.000 400.000 L 400.000 400.000 400.000 200.000 L 400.000 0.000 200.000 0.000 L 0.000 0.000 0.000 200.000 M199.115 39.625 C 206.249 42.137,213.597 47.689,216.042 52.415 C 216.451 53.206,216.964 53.963,217.182 54.098 C 217.400 54.233,217.578 54.890,217.578 55.559 C 217.578 56.227,218.122 57.891,218.787 59.256 C 220.526 62.826,220.358 70.838,218.452 75.195 C 216.716 79.166,215.612 81.319,214.995 81.935 C 214.697 82.234,214.453 82.635,214.453 82.828 C 214.453 84.383,206.718 90.346,202.797 91.813 C 201.632 92.249,200.311 92.863,199.862 93.178 C 199.221 93.627,197.595 93.750,192.323 93.750 L 185.602 93.750 181.766 91.970 C 179.656 90.992,177.490 89.779,176.953 89.275 C 176.416 88.772,175.128 87.828,174.091 87.179 C 172.984 86.484,171.715 85.219,171.014 84.112 C 170.359 83.075,169.317 81.649,168.700 80.943 C 168.083 80.238,167.578 79.424,167.578 79.136 C 167.578 78.847,167.314 78.392,166.992 78.125 C 166.670 77.858,166.406 77.118,166.406 76.482 C 166.406 75.847,165.879 74.125,165.234 72.656 C 163.857 69.519,163.597 64.015,164.689 61.133 C 165.014 60.273,165.649 58.528,166.098 57.254 C 166.548 55.979,167.329 54.329,167.833 53.586 C 168.337 52.843,168.750 51.988,168.750 51.686 C 168.750 50.356,175.914 43.694,179.032 42.125 C 187.503 37.863,192.386 37.255,199.115 39.625 M187.577 51.551 C 184.381 52.411,183.270 53.117,180.050 56.333 C 178.197 58.183,177.780 58.850,177.607 60.239 C 177.493 61.160,177.182 62.922,176.917 64.153 C 175.042 72.852,182.491 81.973,191.697 82.250 C 201.513 82.545,211.173 70.570,207.450 62.721 C 207.035 61.847,206.508 60.410,206.277 59.526 C 205.516 56.607,199.976 51.741,197.038 51.410 C 191.392 50.774,190.410 50.789,187.577 51.551 M268.945 78.751 C 269.805 79.077,271.563 79.708,272.852 80.155 C 274.141 80.601,275.459 81.184,275.781 81.450 C 276.104 81.717,277.158 82.289,278.125 82.721 C 280.460 83.764,286.853 90.282,287.477 92.254 C 287.727 93.042,288.175 93.891,288.475 94.139 C 288.774 94.387,289.401 95.741,289.869 97.147 C 290.337 98.552,290.961 100.165,291.256 100.730 C 292.783 103.657,291.524 112.293,288.857 117.188 C 288.564 117.725,287.875 119.062,287.324 120.160 C 286.266 122.269,279.397 129.297,278.392 129.297 C 278.090 129.297,277.246 129.702,276.516 130.198 C 275.786 130.693,274.223 131.410,273.044 131.791 C 271.864 132.172,270.509 132.733,270.033 133.039 C 268.374 134.103,259.044 133.806,256.973 132.622 C 256.030 132.083,254.642 131.648,253.856 131.645 C 253.077 131.643,252.221 131.377,251.953 131.055 C 251.686 130.732,251.231 130.469,250.942 130.469 C 250.654 130.469,249.840 129.964,249.135 129.347 C 248.429 128.729,247.003 127.688,245.966 127.033 C 244.859 126.332,243.594 125.063,242.900 123.955 C 242.250 122.919,241.321 121.631,240.835 121.094 C 239.942 120.106,238.660 117.757,237.153 114.345 C 234.436 108.197,236.676 95.539,241.472 89.936 C 242.072 89.235,242.833 88.140,243.162 87.503 C 243.492 86.866,244.685 85.754,245.813 85.032 C 246.942 84.310,248.141 83.444,248.479 83.106 C 249.759 81.826,253.063 80.078,254.204 80.078 C 254.857 80.078,256.331 79.640,257.481 79.105 C 260.022 77.922,266.249 77.730,268.945 78.751 M131.320 83.301 C 132.325 83.892,133.498 84.375,133.926 84.375 C 134.355 84.375,135.203 84.790,135.810 85.298 C 136.417 85.806,137.617 86.583,138.477 87.024 C 141.759 88.712,145.933 94.264,147.932 99.604 C 148.456 101.003,149.048 102.315,149.247 102.520 C 149.923 103.212,149.691 114.724,148.973 116.113 C 148.623 116.789,148.050 118.143,147.700 119.121 C 145.173 126.166,134.946 135.812,130.169 135.655 C 129.797 135.642,128.315 135.979,126.877 136.403 C 122.153 137.793,113.642 136.448,108.984 133.575 C 108.662 133.376,107.871 132.929,107.227 132.582 C 103.161 130.392,98.255 123.899,95.448 116.992 C 94.190 113.900,93.784 104.717,94.814 102.696 C 95.077 102.180,95.649 100.778,96.086 99.581 C 98.458 93.074,104.902 86.202,110.156 84.577 C 110.693 84.411,111.836 83.903,112.695 83.449 C 114.988 82.237,115.070 82.227,122.583 82.227 C 129.417 82.227,129.512 82.238,131.320 83.301 M259.490 90.890 C 249.797 94.242,245.076 103.932,249.196 112.018 C 251.304 116.155,255.590 120.312,257.748 120.313 C 258.171 120.313,259.456 120.750,260.606 121.285 C 263.246 122.514,264.979 122.514,267.130 121.284 C 268.065 120.750,269.455 120.313,270.218 120.313 C 272.180 120.313,277.940 114.579,278.318 112.250 C 278.453 111.421,278.749 109.894,278.976 108.858 C 279.417 106.842,279.193 103.699,278.297 99.338 C 277.927 97.539,272.108 91.797,270.654 91.797 C 270.224 91.797,268.960 91.381,267.846 90.872 C 264.564 89.373,263.872 89.374,259.490 90.890 M115.150 94.868 C 114.445 95.482,113.314 96.269,112.637 96.615 C 110.110 97.909,105.854 105.676,105.859 108.986 C 105.860 109.847,108.495 117.175,109.180 118.220 C 112.249 122.904,115.296 124.342,122.134 124.332 L 127.276 124.324 129.829 122.896 C 134.134 120.489,138.281 113.660,138.281 108.979 C 138.281 106.650,135.355 100.066,133.293 97.757 C 129.736 93.773,118.467 91.978,115.150 94.868 M211.116 111.426 C 217.047 115.331,217.641 121.030,212.628 125.925 C 208.180 130.268,201.241 129.198,198.535 123.753 C 194.533 115.700,203.807 106.612,211.116 111.426 M181.683 112.237 C 186.566 113.825,189.343 120.233,186.932 124.348 C 182.236 132.362,172.414 131.604,169.517 123.004 L 168.752 120.733 169.675 118.191 C 171.731 112.527,176.026 110.397,181.683 112.237 M225.123 135.195 C 231.503 139.121,232.378 147.913,226.698 151.028 C 221.120 154.089,217.391 153.149,213.379 147.673 C 208.402 140.879,217.923 130.764,225.123 135.195 M170.632 137.147 C 173.489 139.249,175.472 143.767,174.686 146.387 C 174.444 147.192,174.145 148.233,174.020 148.700 C 173.809 149.494,172.304 150.963,169.588 153.027 C 166.347 155.490,160.328 153.626,157.562 149.302 C 155.096 145.446,155.640 141.961,159.302 138.171 C 161.862 135.522,167.704 134.994,170.632 137.147 M212.727 159.476 C 218.143 162.521,219.585 168.047,216.166 172.657 C 214.124 175.409,213.934 175.555,211.133 176.502 L 208.789 177.294 205.961 176.293 C 201.785 174.815,199.637 172.172,199.618 168.487 C 199.577 160.731,206.498 155.973,212.727 159.476 M273.253 158.733 C 273.677 159.025,274.727 159.490,275.586 159.767 C 276.445 160.044,277.568 160.596,278.080 160.994 C 278.592 161.393,279.232 161.719,279.502 161.719 C 282.043 161.719,291.797 174.536,291.797 177.876 C 291.797 178.550,292.149 180.026,292.578 181.157 C 293.616 183.888,293.616 187.800,292.578 190.532 C 292.148 191.662,291.797 193.097,291.797 193.721 C 291.797 194.712,291.152 196.100,288.457 200.912 C 287.518 202.587,282.799 207.403,281.250 208.267 C 280.498 208.687,278.828 209.621,277.539 210.342 C 276.250 211.064,274.707 211.669,274.109 211.687 C 273.512 211.704,271.979 212.158,270.703 212.695 C 268.888 213.459,267.710 213.672,265.293 213.672 C 262.949 213.672,261.576 213.436,259.608 212.695 C 258.181 212.158,256.561 211.719,256.008 211.719 C 255.456 211.719,254.536 211.411,253.965 211.035 C 253.394 210.659,252.641 210.176,252.292 209.961 C 248.361 207.540,245.667 205.488,245.305 204.638 C 245.064 204.074,244.001 202.588,242.941 201.335 C 241.882 200.082,241.016 198.913,241.016 198.737 C 241.016 198.560,240.400 197.171,239.648 195.649 L 238.281 192.883 238.281 185.692 L 238.281 178.501 239.453 176.305 C 240.098 175.097,240.625 173.803,240.625 173.430 C 240.625 173.057,240.902 172.522,241.241 172.240 C 241.580 171.959,242.270 170.927,242.773 169.946 C 244.603 166.381,250.015 162.157,255.273 160.190 C 256.511 159.727,257.892 159.090,258.341 158.775 C 259.480 157.977,272.103 157.942,273.253 158.733 M183.289 160.173 C 187.990 161.479,191.499 168.709,189.118 172.184 C 188.720 172.766,188.107 173.715,187.757 174.294 C 184.762 179.245,176.015 179.214,172.940 174.241 C 170.152 169.733,170.609 165.650,174.306 162.033 C 176.248 160.132,176.142 160.168,180.859 159.838 C 181.396 159.801,182.490 159.952,183.289 160.173 M134.487 162.053 C 140.050 164.698,143.831 167.410,144.913 169.531 C 145.187 170.068,145.922 171.211,146.546 172.070 C 148.891 175.301,149.609 176.630,149.609 177.741 C 149.609 178.369,150.049 179.878,150.586 181.092 C 152.000 184.290,152.002 189.994,150.590 193.028 C 150.055 194.177,149.615 195.586,149.613 196.159 C 149.602 199.337,143.561 207.494,139.832 209.367 C 138.872 209.850,137.731 210.568,137.298 210.964 C 135.683 212.439,132.802 213.672,130.936 213.685 C 129.927 213.692,128.135 214.037,126.953 214.453 C 124.204 215.420,122.541 215.421,119.468 214.458 C 118.106 214.031,116.517 213.680,115.936 213.677 C 114.392 213.670,108.180 210.244,105.990 208.192 C 103.189 205.569,99.609 201.515,99.609 200.966 C 99.609 200.702,99.346 200.267,99.023 200.000 C 98.701 199.733,98.438 198.978,98.438 198.324 C 98.438 197.669,97.910 196.199,97.266 195.057 C 96.109 193.007,96.094 192.906,96.094 187.155 C 96.094 181.438,96.116 181.288,97.266 179.102 C 97.910 177.876,98.438 176.564,98.438 176.185 C 98.438 175.806,98.765 175.077,99.166 174.564 C 99.567 174.052,100.352 172.727,100.911 171.620 C 102.434 168.604,107.745 163.928,111.719 162.104 C 112.256 161.857,113.311 161.326,114.063 160.923 C 115.260 160.282,116.365 160.189,122.964 160.174 L 130.498 160.156 134.487 162.053 M262.156 170.012 C 261.430 170.204,260.463 170.594,260.008 170.879 C 259.552 171.164,258.558 171.505,257.798 171.638 C 252.133 172.627,247.384 185.152,250.488 190.918 C 250.864 191.616,251.456 192.759,251.802 193.457 C 252.531 194.925,256.678 198.979,258.398 199.907 C 259.320 200.404,260.740 200.539,265.039 200.537 L 270.508 200.534 273.287 199.117 C 288.440 191.391,278.599 165.657,262.156 170.012 M116.725 172.922 C 113.769 174.328,109.788 178.135,109.774 179.569 C 109.769 180.041,109.326 181.254,108.789 182.264 C 107.419 184.842,107.420 188.789,108.793 191.738 C 109.328 192.887,109.766 194.175,109.766 194.599 C 109.766 195.817,113.788 199.728,116.456 201.104 C 119.435 202.640,128.111 202.992,130.136 201.658 C 136.953 197.169,138.354 195.161,138.921 189.062 C 139.144 186.657,139.015 185.391,138.068 180.664 C 137.981 180.234,137.452 179.355,136.890 178.711 C 136.329 178.066,135.753 177.356,135.611 177.131 C 135.117 176.354,129.665 171.875,129.189 171.855 C 121.082 171.521,119.360 171.668,116.725 172.922 M200.781 201.563 C 202.178 201.989,203.723 202.339,204.215 202.341 C 204.707 202.342,205.586 202.658,206.168 203.043 C 206.750 203.428,207.578 203.960,208.008 204.226 C 212.087 206.755,213.597 207.839,214.901 209.180 C 217.561 211.914,221.875 218.920,221.875 220.506 C 221.875 220.938,222.227 222.521,222.656 224.023 C 223.645 227.483,223.646 229.913,222.656 232.515 C 222.227 233.646,221.875 235.136,221.875 235.828 C 221.874 240.949,213.822 250.352,206.250 254.073 L 202.539 255.896 195.256 255.909 C 187.699 255.921,186.289 255.648,182.813 253.496 C 182.490 253.296,181.563 252.774,180.752 252.335 C 178.084 250.891,172.219 244.567,170.762 241.564 C 170.042 240.081,169.184 238.362,168.856 237.745 C 168.373 236.839,168.264 235.109,168.289 228.761 L 168.319 220.898 170.029 217.534 C 173.880 209.964,182.736 202.345,187.688 202.343 C 188.337 202.343,189.746 202.000,190.820 201.580 C 193.429 200.562,197.479 200.554,200.781 201.563 M190.972 213.618 C 182.779 214.408,176.852 227.143,180.898 235.265 C 186.718 246.950,200.816 247.603,209.174 236.575 L 210.320 235.063 210.335 228.939 C 210.351 222.119,210.433 222.390,207.301 218.912 C 202.706 213.810,199.561 212.790,190.972 213.618 M124.034 295.456 C 125.425 298.328,126.563 300.805,126.563 300.961 C 126.563 301.117,126.914 301.691,127.344 302.237 C 127.773 302.783,128.125 303.534,128.125 303.904 C 128.125 304.275,128.564 305.226,129.102 306.018 C 129.639 306.809,130.078 307.777,130.078 308.168 C 130.078 308.559,130.402 309.298,130.799 309.811 C 131.195 310.323,131.633 311.328,131.772 312.043 C 131.911 312.759,132.377 313.794,132.809 314.342 C 133.241 314.891,133.594 315.598,133.594 315.913 C 133.594 316.228,134.023 317.303,134.548 318.302 C 136.423 321.869,140.234 329.939,140.234 330.343 C 140.234 330.569,140.560 331.173,140.959 331.686 C 141.357 332.198,141.894 333.262,142.151 334.051 C 142.408 334.839,142.873 335.696,143.184 335.954 C 143.495 336.212,143.750 336.983,143.750 337.667 C 143.750 338.380,144.167 339.475,144.727 340.234 C 145.264 340.962,145.703 341.767,145.703 342.023 C 145.703 342.278,146.387 343.870,147.223 345.560 C 149.985 351.143,152.344 356.152,152.344 356.436 C 152.344 356.590,152.669 357.182,153.066 357.752 C 154.862 360.333,154.237 361.830,151.318 361.940 C 148.511 362.046,146.442 360.554,145.866 358.008 C 145.721 357.363,145.273 356.417,144.871 355.904 C 144.469 355.392,144.141 354.493,144.141 353.906 C 144.141 353.320,143.813 352.421,143.413 351.908 C 143.013 351.396,142.561 350.578,142.408 350.091 C 141.499 347.189,139.008 342.679,138.081 342.256 C 136.707 341.630,99.501 341.603,97.712 342.227 C 96.881 342.516,96.397 342.993,96.226 343.691 C 96.086 344.261,95.560 345.339,95.056 346.087 C 94.553 346.835,94.141 347.612,94.141 347.815 C 94.141 348.213,90.795 355.364,88.826 359.175 C 87.617 361.516,87.606 361.524,85.537 361.782 C 80.671 362.388,80.651 361.254,85.372 352.286 C 85.898 351.288,86.328 350.085,86.328 349.613 C 86.328 349.142,86.680 348.309,87.109 347.763 C 87.539 347.217,87.891 346.465,87.891 346.094 C 87.891 345.722,88.242 344.971,88.672 344.425 C 89.102 343.878,89.453 343.285,89.453 343.106 C 89.453 342.765,90.999 339.486,94.140 333.166 C 95.165 331.104,96.134 328.995,96.295 328.478 C 96.455 327.962,96.904 327.089,97.291 326.539 C 97.678 325.988,98.121 325.022,98.276 324.390 C 98.430 323.759,98.877 322.829,99.268 322.324 C 99.659 321.818,100.097 320.764,100.242 319.980 C 100.386 319.196,100.830 318.135,101.228 317.623 C 101.627 317.111,101.953 316.452,101.953 316.158 C 101.953 315.865,102.424 314.702,103.000 313.574 C 103.576 312.446,104.223 311.172,104.437 310.742 C 104.651 310.313,105.049 309.521,105.320 308.984 C 105.592 308.447,106.508 306.514,107.355 304.688 C 108.202 302.861,109.706 299.674,110.698 297.605 C 111.689 295.536,112.500 293.687,112.500 293.495 C 112.500 293.304,113.040 292.491,113.700 291.691 L 114.901 290.234 118.203 290.234 L 121.505 290.234 124.034 295.456 M116.629 299.051 C 116.292 299.389,116.016 299.983,116.016 300.371 C 116.016 300.759,115.771 301.279,115.472 301.528 C 115.173 301.776,114.711 302.544,114.447 303.236 C 113.954 304.522,112.016 308.700,109.327 314.272 C 108.494 315.998,107.813 317.860,107.813 318.410 C 107.813 318.960,107.478 319.713,107.070 320.082 C 106.662 320.452,106.217 321.340,106.083 322.057 C 105.949 322.773,105.589 323.567,105.283 323.820 C 104.977 324.074,104.519 324.926,104.264 325.715 C 104.009 326.503,103.403 327.852,102.918 328.711 C 102.432 329.570,101.905 330.713,101.747 331.250 C 101.589 331.787,101.132 332.693,100.730 333.263 C 99.938 334.389,99.773 335.751,100.383 336.128 C 101.098 336.570,133.527 336.391,134.369 335.941 C 135.291 335.447,135.363 334.486,134.558 333.421 C 134.242 333.004,133.984 332.193,133.984 331.619 C 133.984 331.044,133.660 330.155,133.263 329.643 C 132.866 329.130,132.415 328.194,132.260 327.563 C 132.106 326.931,131.662 325.965,131.275 325.414 C 130.888 324.864,130.438 323.975,130.274 323.438 C 129.972 322.445,128.458 319.247,126.733 315.958 C 126.210 314.960,125.781 313.888,125.781 313.577 C 125.781 313.266,125.430 312.694,125.000 312.305 C 124.488 311.841,124.219 311.102,124.219 310.156 C 124.219 309.234,123.950 308.472,123.473 308.040 C 123.062 307.668,122.608 306.894,122.464 306.319 C 121.256 301.502,118.104 297.576,116.629 299.051 M300.781 307.617 C 301.963 307.934,303.740 308.196,304.730 308.198 C 310.928 308.214,317.549 315.464,319.540 324.414 C 320.170 327.246,320.014 360.765,319.368 361.301 C 317.011 363.258,312.891 361.465,312.891 358.484 C 312.891 355.862,311.341 354.720,309.924 356.297 C 308.787 357.562,305.423 359.603,302.638 360.717 C 300.016 361.766,286.724 362.285,286.153 361.361 C 286.032 361.165,284.670 360.522,283.128 359.932 C 280.943 359.097,279.844 358.371,278.150 356.645 C 274.447 352.870,274.219 352.286,274.219 346.592 L 274.219 341.675 276.074 338.955 C 277.898 336.282,280.104 334.373,282.031 333.802 C 282.568 333.643,283.447 333.227,283.984 332.879 C 285.176 332.106,291.244 331.642,302.899 331.431 C 313.027 331.248,312.343 331.698,312.196 325.322 L 312.088 320.603 310.517 318.798 C 307.300 315.099,305.300 313.738,302.925 313.632 C 293.883 313.227,287.312 313.637,285.530 314.718 C 284.787 315.168,283.740 315.668,283.203 315.828 C 282.666 315.989,281.649 316.625,280.943 317.240 C 279.000 318.936,276.172 317.666,276.172 315.097 C 276.172 313.699,281.007 310.156,282.915 310.156 C 283.225 310.156,284.304 309.717,285.314 309.180 C 286.496 308.552,287.805 308.197,288.986 308.186 C 289.995 308.177,291.875 307.931,293.164 307.640 C 296.301 306.932,298.208 306.927,300.781 307.617 M263.574 308.299 C 263.854 308.523,264.063 309.573,264.063 310.762 C 264.063 313.757,263.560 314.122,259.623 313.986 C 257.117 313.900,256.156 314.031,255.078 314.606 C 254.326 315.008,253.092 315.649,252.336 316.032 C 249.913 317.259,246.956 320.612,245.311 323.998 L 243.781 327.148 243.756 344.131 C 243.728 363.094,243.973 361.740,240.540 361.836 C 236.341 361.952,236.719 364.604,236.719 334.991 C 236.719 306.021,236.460 308.203,239.894 308.203 C 243.183 308.203,243.665 308.934,243.399 313.520 C 243.312 315.020,244.026 316.406,244.886 316.406 C 245.050 316.406,245.862 315.571,246.689 314.551 C 248.390 312.454,250.927 310.432,252.883 309.615 C 253.608 309.312,254.321 308.870,254.468 308.634 C 254.614 308.397,255.734 308.182,256.957 308.157 C 258.179 308.131,259.707 307.979,260.352 307.817 C 261.616 307.500,262.797 307.677,263.574 308.299 M171.875 326.563 C 172.069 344.562,172.078 344.739,172.948 346.094 C 173.430 346.846,173.826 347.886,173.827 348.405 C 173.829 349.675,178.415 354.297,179.674 354.297 C 180.168 354.297,181.208 354.692,181.985 355.176 C 183.275 355.978,183.875 356.055,188.867 356.055 C 193.791 356.055,194.500 355.967,195.981 355.176 C 196.885 354.692,197.969 354.297,198.390 354.297 C 200.122 354.297,206.250 347.980,206.250 346.195 C 206.250 345.653,206.646 344.573,207.129 343.796 C 207.997 342.401,208.010 342.166,208.203 325.391 L 208.398 308.398 211.317 308.398 C 215.574 308.398,215.248 306.095,215.136 335.435 C 215.025 364.205,215.334 361.974,211.476 361.838 C 208.452 361.731,208.203 361.423,208.203 357.797 C 208.203 352.684,207.684 352.409,204.363 355.762 C 202.226 357.919,199.027 360.156,198.078 360.156 C 197.829 360.156,196.936 360.508,196.094 360.938 C 194.741 361.628,193.791 361.719,187.953 361.719 C 180.819 361.719,180.801 361.715,175.074 358.850 C 173.156 357.891,168.204 352.926,167.763 351.520 C 167.602 351.006,167.143 350.167,166.743 349.654 C 166.228 348.995,166.016 348.074,166.016 346.501 C 166.016 345.279,165.746 343.489,165.417 342.522 C 164.573 340.046,164.727 309.870,165.588 308.833 C 166.029 308.302,166.687 308.194,168.909 308.285 L 171.680 308.398 171.875 326.563 M288.281 336.914 C 287.100 337.434,285.752 337.866,285.287 337.875 C 284.309 337.893,281.689 340.697,280.611 342.881 C 277.995 348.180,282.947 355.696,289.565 356.470 C 295.959 357.218,302.477 356.629,304.527 355.117 C 309.170 351.695,311.467 349.211,312.102 346.926 C 312.669 344.885,312.616 336.991,312.031 336.406 C 311.006 335.381,290.782 335.814,288.281 336.914 " stroke="none" fill="#fbfbfb" fill-rule="evenodd"></path><path id="path1" d="M186.523 40.595 C 180.965 42.131,170.313 50.027,170.313 52.611 C 170.313 53.025,169.873 53.959,169.336 54.688 C 168.799 55.416,168.359 56.257,168.359 56.559 C 168.359 56.860,167.964 57.660,167.480 58.338 C 166.654 59.497,166.602 59.957,166.602 66.025 C 166.602 72.128,166.650 72.541,167.480 73.597 C 168.083 74.363,168.359 75.244,168.359 76.397 C 168.359 77.855,168.617 78.373,170.289 80.284 C 171.350 81.497,172.328 82.989,172.462 83.601 C 172.748 84.899,173.225 85.342,174.730 85.702 C 175.334 85.846,176.564 86.632,177.464 87.448 C 178.365 88.264,180.421 89.577,182.035 90.364 L 184.968 91.797 191.996 91.799 L 199.023 91.801 203.906 89.397 C 210.500 86.152,212.144 84.543,215.214 78.330 L 217.540 73.624 217.616 66.896 C 217.693 60.200,217.688 60.162,216.659 58.677 C 215.928 57.621,215.625 56.687,215.625 55.484 C 215.625 53.811,207.517 44.531,206.055 44.531 C 205.818 44.531,203.875 43.620,201.738 42.506 L 197.852 40.481 192.773 40.376 C 189.980 40.318,187.168 40.417,186.523 40.595 M199.924 50.156 C 202.770 51.628,208.062 57.929,208.326 60.161 C 208.465 61.332,208.933 62.766,209.367 63.354 C 210.222 64.510,210.534 69.642,209.778 70.109 C 209.570 70.238,208.876 71.435,208.236 72.769 C 205.399 78.680,197.456 84.372,192.036 84.378 C 185.751 84.386,176.211 76.875,175.647 71.476 C 174.418 59.723,176.144 55.495,183.877 51.316 L 186.914 49.674 192.890 49.642 C 197.300 49.618,199.144 49.753,199.924 50.156 M258.454 80.478 C 257.840 80.663,257.007 81.113,256.604 81.479 C 256.200 81.844,255.208 82.182,254.399 82.228 C 253.591 82.275,252.710 82.337,252.443 82.367 C 252.175 82.397,251.233 83.081,250.349 83.887 C 249.466 84.692,247.842 85.791,246.740 86.328 C 245.146 87.105,244.663 87.570,244.374 88.604 C 244.174 89.319,243.293 90.726,242.415 91.729 C 238.955 95.689,238.493 97.270,238.355 105.601 L 238.233 112.960 239.429 115.440 C 240.087 116.804,240.625 118.037,240.625 118.180 C 240.625 118.323,241.396 119.298,242.339 120.346 C 243.281 121.394,244.174 122.738,244.323 123.331 C 244.693 124.803,245.169 125.297,246.501 125.590 C 247.125 125.727,248.518 126.632,249.596 127.601 C 251.195 129.039,251.934 129.417,253.610 129.653 C 254.740 129.812,256.279 130.324,257.031 130.790 C 258.265 131.555,258.936 131.638,263.906 131.639 L 269.414 131.641 274.453 129.118 C 279.969 126.357,284.647 122.321,285.605 119.497 C 285.853 118.764,286.359 117.725,286.727 117.188 C 287.096 116.650,287.529 115.771,287.690 115.234 C 287.851 114.697,288.213 113.994,288.493 113.672 C 291.188 110.578,289.899 98.639,286.418 94.444 C 286.188 94.167,285.871 93.415,285.713 92.771 C 285.071 90.156,279.616 85.376,274.305 82.774 L 269.460 80.402 264.515 80.272 C 261.796 80.201,259.068 80.293,258.454 80.478 M121.875 83.969 C 121.553 84.186,119.773 84.366,117.920 84.369 C 112.460 84.379,100.402 91.188,100.389 94.268 C 100.387 94.665,99.244 97.000,96.914 101.367 C 96.414 102.305,96.289 103.824,96.289 108.984 L 96.289 115.430 98.747 120.347 C 101.278 125.412,105.723 130.658,108.131 131.422 C 108.617 131.577,109.754 132.126,110.659 132.643 C 111.564 133.161,112.867 133.586,113.554 133.589 C 114.240 133.592,115.629 134.033,116.639 134.570 C 118.211 135.406,118.989 135.547,122.034 135.547 C 125.080 135.547,125.856 135.406,127.427 134.570 C 128.436 134.033,129.796 133.594,130.450 133.594 C 133.522 133.594,143.750 125.643,143.750 123.255 C 143.750 122.885,144.073 122.115,144.468 121.545 C 147.188 117.616,147.656 115.773,147.656 108.997 L 147.656 102.626 145.290 97.838 C 142.871 92.941,138.983 88.281,137.318 88.281 C 136.966 88.281,136.031 87.842,135.240 87.305 C 134.450 86.768,133.563 86.328,133.270 86.328 C 132.977 86.328,132.183 85.933,131.506 85.449 C 130.615 84.814,129.462 84.500,127.344 84.315 C 125.732 84.174,123.975 83.950,123.438 83.817 C 122.900 83.684,122.197 83.753,121.875 83.969 M266.208 88.454 C 267.104 88.979,268.782 89.534,269.936 89.687 C 272.263 89.996,278.490 95.361,279.851 98.230 C 280.563 99.730,280.757 111.692,280.097 113.427 C 279.190 115.812,271.967 122.265,270.201 122.268 C 269.137 122.269,268.002 122.610,266.992 123.232 C 264.995 124.462,263.395 124.465,261.095 123.242 C 260.042 122.682,258.610 122.266,257.737 122.266 C 255.412 122.266,249.601 116.545,247.316 112.006 C 245.399 108.198,245.008 103.665,246.420 101.623 C 246.814 101.053,247.545 99.726,248.044 98.676 C 249.928 94.707,256.215 89.464,259.100 89.455 C 259.486 89.454,260.627 89.014,261.636 88.477 C 263.903 87.270,264.185 87.268,266.208 88.454 M128.561 92.521 C 129.073 92.920,130.117 93.449,130.881 93.698 C 133.064 94.410,135.249 97.037,137.515 101.674 C 138.647 103.992,139.723 105.980,139.904 106.092 C 140.593 106.518,140.271 111.351,139.479 112.464 C 139.064 113.047,138.605 113.999,138.459 114.578 C 138.314 115.158,138.034 115.732,137.838 115.853 C 137.642 115.974,136.987 117.159,136.382 118.486 C 135.001 121.515,133.595 122.882,129.917 124.774 L 127.005 126.272 121.684 126.263 C 117.541 126.256,116.216 126.125,115.701 125.672 C 115.337 125.353,114.036 124.622,112.811 124.049 C 109.550 122.524,105.469 116.435,105.469 113.093 C 105.469 112.395,105.117 111.377,104.688 110.831 C 104.258 110.285,103.906 109.454,103.906 108.984 C 103.906 108.515,104.258 107.684,104.688 107.138 C 105.117 106.592,105.469 105.616,105.469 104.970 C 105.469 102.223,108.760 96.632,110.817 95.884 C 111.850 95.508,113.065 94.771,113.518 94.247 C 115.447 92.009,116.173 91.802,122.115 91.799 C 126.892 91.797,127.754 91.894,128.561 92.521 M254.888 162.275 C 252.531 163.473,250.418 164.453,250.193 164.453 C 249.515 164.453,244.634 169.653,244.325 170.703 C 244.167 171.240,243.733 172.119,243.359 172.656 C 242.986 173.193,242.545 174.072,242.379 174.609 C 242.213 175.146,241.663 176.198,241.156 176.946 C 240.268 178.257,240.234 178.577,240.234 185.691 L 240.234 193.076 241.803 196.302 C 242.666 198.076,243.788 199.800,244.296 200.133 C 244.804 200.466,245.619 201.701,246.107 202.878 C 246.886 204.758,247.202 205.097,248.712 205.674 C 249.657 206.035,251.002 206.918,251.700 207.637 C 253.119 209.098,254.559 209.766,256.291 209.766 C 256.930 209.766,257.988 210.161,258.642 210.645 C 259.733 211.451,260.253 211.523,264.974 211.523 C 269.682 211.523,270.221 211.449,271.349 210.645 C 272.027 210.161,273.157 209.766,273.859 209.766 C 279.361 209.766,289.844 199.281,289.844 193.777 C 289.844 193.142,290.191 192.034,290.616 191.314 C 291.827 189.261,291.880 182.473,290.697 180.873 C 290.184 180.180,289.838 179.128,289.828 178.238 C 289.819 177.367,289.337 175.874,288.656 174.609 C 288.021 173.428,287.500 172.282,287.500 172.064 C 287.500 171.066,278.635 162.924,276.172 161.659 L 273.633 160.354 266.403 160.226 L 259.173 160.098 254.888 162.275 M114.844 162.368 C 109.923 164.208,102.344 170.363,102.344 172.518 C 102.344 172.924,101.904 173.903,101.367 174.693 C 100.830 175.484,100.391 176.380,100.391 176.684 C 100.391 176.989,100.063 177.658,99.663 178.170 C 97.825 180.524,97.604 192.700,99.353 195.225 C 100.088 196.284,100.391 197.218,100.391 198.421 C 100.391 202.126,111.716 211.719,116.090 211.719 C 116.919 211.719,117.906 212.059,118.554 212.570 C 120.084 213.772,125.439 213.857,127.164 212.705 C 127.946 212.183,129.287 211.859,131.307 211.703 C 134.180 211.482,134.371 211.404,136.298 209.672 C 137.400 208.681,138.792 207.762,139.392 207.631 C 142.163 207.022,147.656 199.384,147.656 196.141 C 147.656 195.172,147.969 194.239,148.535 193.521 C 149.992 191.672,150.079 182.832,148.661 180.743 C 148.052 179.846,147.656 178.720,147.656 177.887 C 147.656 176.202,147.146 175.182,145.487 173.551 C 144.785 172.861,143.992 171.631,143.723 170.817 C 143.005 168.640,141.360 167.308,136.133 164.670 L 131.445 162.305 123.438 162.227 C 119.033 162.184,115.166 162.247,114.844 162.368 M271.824 169.191 C 276.020 171.388,278.360 173.706,280.566 177.849 L 282.422 181.334 282.416 186.077 C 282.412 189.505,282.253 191.091,281.843 191.797 C 281.532 192.334,280.922 193.529,280.488 194.452 C 279.008 197.602,276.181 200.391,274.468 200.391 C 274.199 200.391,273.384 200.830,272.656 201.367 C 270.905 202.659,259.583 202.880,257.791 201.658 C 254.992 199.748,250.003 194.109,249.412 192.188 C 249.246 191.650,248.784 190.792,248.384 190.279 C 247.161 188.714,247.320 181.076,248.612 179.325 C 249.138 178.612,249.672 177.556,249.799 176.979 C 250.286 174.762,255.848 169.909,258.280 169.579 C 259.467 169.418,261.014 168.921,261.718 168.476 C 264.027 167.014,268.235 167.312,271.824 169.191 M129.550 169.891 C 130.139 169.932,138.718 178.377,139.682 179.866 C 140.853 181.674,140.790 192.646,139.600 194.341 C 139.149 194.983,138.574 196.146,138.321 196.925 C 137.772 198.619,137.012 199.363,134.958 200.222 C 134.113 200.575,132.562 201.636,131.512 202.580 L 129.603 204.297 124.004 204.297 C 120.925 204.297,118.312 204.146,118.198 203.961 C 118.083 203.776,116.886 203.094,115.538 202.446 C 112.107 200.796,107.813 196.346,107.813 194.440 C 107.813 193.704,107.374 192.236,106.838 191.179 C 105.531 188.604,105.465 184.877,106.696 183.212 C 107.191 182.542,107.611 181.258,107.726 180.060 C 107.981 177.406,111.395 173.545,115.039 171.789 C 116.328 171.168,117.746 170.450,118.189 170.193 C 118.842 169.815,125.755 169.632,129.550 169.891 M190.897 203.288 C 189.843 203.855,188.386 204.297,187.570 204.297 C 186.690 204.297,185.583 204.660,184.759 205.218 C 184.011 205.725,182.959 206.275,182.422 206.441 C 180.469 207.043,172.656 214.583,172.656 215.866 C 172.656 216.059,172.174 217.095,171.584 218.167 C 170.587 219.982,169.967 224.085,169.933 229.102 C 169.875 237.824,171.169 241.064,177.039 246.884 C 183.305 253.098,186.041 254.157,195.313 253.960 C 196.064 253.944,198.084 253.920,199.800 253.906 C 204.250 253.871,208.696 251.641,213.207 247.181 C 215.247 245.164,217.486 242.217,217.736 241.220 C 217.883 240.635,218.367 239.665,218.811 239.064 C 219.255 238.463,219.709 237.119,219.820 236.076 C 219.930 235.033,220.306 233.854,220.655 233.456 C 221.857 232.085,221.781 224.740,220.541 222.411 C 219.986 221.368,219.531 220.018,219.531 219.411 C 219.531 218.011,218.994 217.015,217.359 215.379 C 216.642 214.663,215.896 213.497,215.700 212.788 C 215.219 211.045,213.199 209.111,210.712 208.011 C 209.583 207.512,208.378 206.674,208.035 206.151 C 207.255 204.960,205.836 204.297,204.067 204.297 C 203.271 204.297,202.215 203.936,201.532 203.431 C 199.606 202.008,193.432 201.924,190.897 203.288 M202.581 212.598 C 204.040 213.693,210.846 220.597,211.604 221.751 C 212.349 222.884,212.624 226.997,212.292 232.029 L 212.021 236.128 208.663 239.560 C 206.391 241.882,204.606 243.325,203.141 244.024 C 201.951 244.591,200.670 245.316,200.295 245.634 C 199.309 246.470,190.499 246.446,189.538 245.605 C 189.169 245.282,188.032 244.655,187.011 244.210 C 184.712 243.210,180.287 238.737,179.643 236.763 C 179.390 235.987,178.857 234.932,178.459 234.420 C 177.652 233.383,177.356 224.499,178.112 224.031 C 178.320 223.903,179.011 222.706,179.648 221.372 C 180.502 219.582,181.774 217.997,184.491 215.332 L 188.176 211.719 194.793 211.719 C 201.049 211.719,201.475 211.767,202.581 212.598 " stroke="none" fill="#7e7e7e" fill-rule="evenodd"></path><path id="path2" d="M203.516 112.092 C 199.351 114.312,197.454 119.570,199.503 123.216 C 203.670 130.633,214.202 127.871,214.512 119.281 C 214.718 113.546,208.461 109.455,203.516 112.092 M174.695 113.527 C 170.165 115.718,168.739 122.647,172.159 125.852 C 176.906 130.301,183.905 129.132,186.073 123.527 C 188.664 116.830,181.280 110.341,174.695 113.527 M220.313 135.543 C 211.723 136.876,210.966 148.421,219.264 151.540 C 223.433 153.107,230.529 147.647,229.563 143.615 C 228.183 137.860,224.741 134.856,220.313 135.543 M162.739 137.500 C 156.025 140.125,155.467 148.743,161.801 151.991 C 164.588 153.421,167.826 152.894,171.039 150.488 C 175.921 146.830,173.790 138.329,167.773 137.464 C 166.699 137.309,165.557 137.086,165.234 136.968 C 164.912 136.850,163.789 137.090,162.739 137.500 M205.664 160.138 C 203.631 161.059,202.166 162.659,201.358 164.844 C 199.366 170.225,201.589 173.950,207.895 175.798 C 211.579 176.878,216.246 172.563,216.617 167.735 C 217.057 161.998,210.934 157.751,205.664 160.138 M178.516 161.292 C 173.325 161.976,170.842 167.285,173.234 172.584 C 174.682 175.791,176.049 176.563,180.277 176.563 C 189.442 176.563,191.999 165.303,183.659 161.674 C 181.925 160.919,181.552 160.892,178.516 161.292 M115.326 291.659 C 115.054 291.773,113.801 294.004,112.543 296.617 C 111.284 299.229,108.299 305.352,105.909 310.222 C 103.518 315.092,101.563 319.416,101.563 319.831 C 101.563 320.245,100.444 322.853,99.076 325.624 C 89.682 344.665,87.500 349.267,87.500 350.039 C 87.500 350.519,86.519 352.829,85.321 355.172 C 82.837 360.028,82.829 360.647,85.250 360.472 L 86.914 360.352 90.306 353.516 C 92.171 349.756,93.796 346.416,93.916 346.094 C 96.021 340.461,95.142 340.661,117.858 340.641 C 141.475 340.621,138.936 339.925,142.633 347.433 C 144.107 350.426,145.313 353.104,145.313 353.386 C 145.313 356.589,148.664 360.891,150.951 360.624 C 153.168 360.365,153.121 360.203,147.675 349.211 C 144.872 343.554,142.578 338.584,142.578 338.166 C 142.578 337.435,141.485 335.109,133.923 319.737 C 132.023 315.875,130.469 312.386,130.469 311.984 C 130.469 311.308,128.000 305.776,126.690 303.516 C 126.378 302.979,126.023 302.219,125.899 301.827 C 125.776 301.435,124.580 298.974,123.241 296.358 L 120.808 291.602 118.314 291.527 C 116.942 291.485,115.598 291.545,115.326 291.659 M119.471 298.283 C 119.964 298.628,121.331 300.869,122.510 303.264 C 123.689 305.658,124.820 307.784,125.022 307.988 C 125.225 308.192,125.391 308.873,125.391 309.500 C 125.391 310.558,126.940 313.951,132.914 325.977 C 134.195 328.555,135.376 331.279,135.539 332.031 C 135.702 332.783,135.960 333.862,136.113 334.429 C 136.349 335.303,136.184 335.617,135.025 336.501 L 133.660 337.543 117.237 337.544 C 96.271 337.546,97.039 337.870,100.722 330.565 C 104.658 322.760,106.641 318.443,106.641 317.679 C 106.641 317.007,107.666 314.802,113.405 303.130 C 116.158 297.530,117.204 296.695,119.471 298.283 M292.578 308.789 C 291.826 309.079,290.415 309.329,289.441 309.345 C 286.457 309.395,277.693 313.512,277.407 314.998 C 277.083 316.682,279.126 317.674,280.283 316.395 C 281.540 315.007,287.031 312.500,288.815 312.500 C 289.703 312.501,291.836 312.306,293.555 312.068 C 296.060 311.720,297.591 311.753,301.277 312.233 L 305.874 312.831 307.917 314.664 C 310.323 316.822,313.266 320.184,313.318 320.833 C 313.338 321.084,313.411 322.080,313.481 323.047 C 313.550 324.014,313.718 325.690,313.853 326.772 C 314.107 328.813,312.512 332.015,311.228 332.041 C 310.961 332.046,307.227 332.090,302.930 332.139 C 296.040 332.216,294.990 332.313,294.043 332.955 C 291.687 334.553,292.707 334.754,303.201 334.760 C 314.280 334.767,313.867 334.507,313.867 341.471 C 313.867 347.489,313.542 348.185,308.517 352.924 C 303.525 357.631,304.111 357.377,297.635 357.652 C 285.919 358.150,282.187 356.337,279.301 348.744 C 277.484 343.964,280.985 337.892,286.429 336.382 C 289.038 335.659,291.016 334.642,291.016 334.024 C 291.016 332.997,286.391 332.985,284.061 334.007 C 277.346 336.949,275.459 339.698,275.417 346.598 C 275.377 352.962,277.468 356.009,283.960 359.050 L 287.256 360.594 294.312 360.473 L 301.367 360.352 304.287 358.858 C 305.893 358.036,308.039 356.586,309.056 355.635 C 311.268 353.566,311.239 353.570,312.814 355.194 C 313.814 356.226,314.063 356.808,314.063 358.115 C 314.063 360.251,315.235 361.169,317.123 360.511 L 318.359 360.080 318.355 342.247 C 318.351 328.356,318.232 323.982,317.814 322.461 C 315.877 315.403,309.758 309.375,304.529 309.375 C 303.594 309.375,302.199 309.111,301.427 308.789 C 299.680 308.059,294.474 308.059,292.578 308.789 M259.766 308.984 C 259.443 309.193,258.339 309.366,257.311 309.369 C 255.491 309.375,251.948 310.779,251.362 311.727 C 251.221 311.955,250.411 312.580,249.562 313.116 C 248.713 313.652,247.684 314.655,247.275 315.346 C 246.159 317.229,245.762 317.578,244.738 317.578 C 243.242 317.578,242.188 315.725,242.188 313.098 C 242.188 310.200,241.726 309.375,240.103 309.375 C 237.792 309.375,237.891 308.237,237.891 334.961 C 237.891 361.850,237.771 360.547,240.234 360.547 C 242.657 360.547,242.578 361.129,242.578 343.273 L 242.578 326.936 244.103 323.902 C 247.265 317.613,253.568 312.901,259.349 312.504 C 262.181 312.310,262.260 312.276,262.565 311.133 C 263.158 308.913,261.658 307.762,259.766 308.984 M166.420 310.131 C 165.537 311.780,165.904 341.078,166.838 343.576 C 167.295 344.797,167.573 346.237,167.462 346.814 C 166.729 350.633,172.925 357.160,179.746 359.752 C 182.971 360.978,193.082 360.920,196.339 359.658 C 200.230 358.150,201.667 357.211,204.222 354.510 C 207.663 350.871,209.744 352.061,209.759 357.677 C 209.766 360.295,211.088 361.511,212.883 360.551 C 214.051 359.926,214.063 359.669,214.063 334.903 C 214.063 308.905,214.102 309.375,211.932 309.375 C 209.186 309.375,209.375 308.180,209.375 325.568 C 209.375 338.506,209.275 341.487,208.809 342.420 C 208.498 343.044,207.969 344.609,207.634 345.898 C 205.567 353.842,191.178 360.143,183.056 356.661 C 182.080 356.243,180.615 355.776,179.801 355.624 C 177.683 355.229,173.198 350.873,172.634 348.664 C 172.411 347.787,171.870 346.162,171.433 345.052 C 170.676 343.129,170.641 342.265,170.686 326.751 C 170.720 314.901,170.610 310.319,170.280 309.922 C 169.575 309.073,166.909 309.217,166.420 310.131 " stroke="none" fill="#5eccfc" fill-rule="evenodd"></path><path id="path3" d="M185.841 39.822 C 179.089 41.981,171.575 47.517,169.378 51.953 C 168.899 52.920,168.305 54.063,168.058 54.492 C 164.753 60.242,163.765 68.081,165.788 72.500 C 166.343 73.712,166.797 75.129,166.797 75.649 C 166.797 76.861,168.143 79.514,169.612 81.198 C 170.243 81.921,171.051 83.126,171.409 83.875 C 171.822 84.742,172.982 85.862,174.603 86.959 C 176.003 87.906,177.724 89.104,178.428 89.621 C 182.005 92.249,184.949 92.969,192.111 92.969 L 198.729 92.969 202.371 91.352 C 210.103 87.920,212.941 85.277,216.365 78.320 C 218.957 73.054,219.142 72.263,219.128 66.489 C 219.117 61.603,219.032 60.961,218.155 59.180 C 217.627 58.105,217.193 56.824,217.191 56.332 C 217.184 54.569,215.486 52.084,211.583 48.126 C 204.051 40.487,193.953 37.229,185.841 39.822 M201.738 42.506 C 203.875 43.620,205.818 44.531,206.055 44.531 C 207.517 44.531,215.625 53.811,215.625 55.484 C 215.625 56.687,215.928 57.621,216.659 58.677 C 217.688 60.162,217.693 60.200,217.616 66.896 L 217.540 73.624 215.214 78.330 C 212.144 84.543,210.500 86.152,203.906 89.397 L 199.023 91.801 191.996 91.799 L 184.968 91.797 182.035 90.364 C 180.421 89.577,178.365 88.264,177.464 87.448 C 176.564 86.632,175.334 85.846,174.730 85.702 C 173.225 85.342,172.748 84.899,172.462 83.601 C 172.328 82.989,171.350 81.497,170.289 80.284 C 168.617 78.373,168.359 77.855,168.359 76.397 C 168.359 75.244,168.083 74.363,167.480 73.597 C 166.650 72.541,166.602 72.128,166.602 66.025 C 166.602 59.957,166.654 59.497,167.480 58.338 C 167.964 57.660,168.359 56.860,168.359 56.559 C 168.359 56.257,168.799 55.416,169.336 54.688 C 169.873 53.959,170.313 53.025,170.313 52.611 C 170.313 50.869,176.464 45.416,181.042 43.099 C 186.589 40.293,186.764 40.252,192.773 40.376 L 197.852 40.481 201.738 42.506 M183.877 51.316 C 176.144 55.495,174.418 59.723,175.647 71.476 C 176.211 76.875,185.751 84.386,192.036 84.378 C 197.456 84.372,205.399 78.680,208.236 72.769 C 208.876 71.435,209.570 70.238,209.778 70.109 C 210.534 69.642,210.222 64.510,209.367 63.354 C 208.933 62.766,208.465 61.332,208.326 60.161 C 208.086 58.129,207.918 57.873,204.528 54.369 C 199.813 49.495,200.078 49.603,192.890 49.642 L 186.914 49.674 183.877 51.316 M197.312 50.924 C 199.766 51.207,200.226 51.508,203.667 55.077 C 206.244 57.750,207.032 58.821,207.035 59.654 C 207.037 60.253,207.477 61.682,208.012 62.832 C 210.064 67.241,208.440 72.496,203.453 77.578 C 196.306 84.863,187.884 84.823,180.638 77.469 C 176.973 73.749,175.771 70.295,176.300 65.004 C 176.962 58.373,176.843 58.699,179.645 55.865 C 184.485 50.970,188.345 49.890,197.312 50.924 M257.227 79.854 C 256.152 80.405,254.781 80.857,254.180 80.858 C 252.825 80.860,251.043 81.756,249.103 83.411 C 248.287 84.107,246.866 85.076,245.944 85.566 C 244.834 86.154,243.975 87.006,243.403 88.084 C 242.927 88.981,241.991 90.378,241.322 91.189 C 237.942 95.290,237.133 98.125,237.080 106.047 L 237.035 112.717 238.627 116.160 C 239.502 118.055,240.737 120.196,241.372 120.920 C 242.007 121.643,242.994 123.032,243.566 124.007 C 244.178 125.052,245.134 126.030,245.894 126.391 C 246.603 126.728,247.861 127.582,248.689 128.289 C 250.583 129.907,253.421 131.370,254.134 131.096 C 254.433 130.982,255.778 131.409,257.124 132.045 C 261.801 134.258,269.351 133.504,275.000 130.259 C 275.537 129.951,276.855 129.275,277.930 128.758 C 280.125 127.700,286.034 121.891,286.520 120.313 C 286.686 119.775,287.132 118.894,287.512 118.355 C 290.749 113.753,292.071 104.536,290.199 99.609 C 287.359 92.133,281.664 84.487,278.125 83.401 C 277.588 83.236,276.709 82.803,276.172 82.439 C 271.253 79.106,261.323 77.751,257.227 79.854 M274.305 82.774 C 279.616 85.376,285.071 90.156,285.713 92.771 C 285.871 93.415,286.188 94.167,286.418 94.444 C 289.899 98.639,291.188 110.578,288.493 113.672 C 288.213 113.994,287.851 114.697,287.690 115.234 C 287.529 115.771,287.096 116.650,286.727 117.188 C 286.359 117.725,285.853 118.764,285.605 119.497 C 284.647 122.321,279.969 126.357,274.453 129.118 L 269.414 131.641 263.906 131.639 C 258.936 131.638,258.265 131.555,257.031 130.790 C 256.279 130.324,254.740 129.812,253.610 129.653 C 251.934 129.417,251.195 129.039,249.596 127.601 C 248.518 126.632,247.125 125.727,246.501 125.590 C 245.169 125.297,244.693 124.803,244.323 123.331 C 244.174 122.738,243.281 121.394,242.339 120.346 C 241.396 119.298,240.625 118.323,240.625 118.180 C 240.625 118.037,240.087 116.804,239.429 115.440 L 238.233 112.960 238.355 105.601 C 238.493 97.270,238.955 95.689,242.415 91.729 C 243.293 90.726,244.174 89.319,244.374 88.604 C 244.663 87.570,245.146 87.105,246.740 86.328 C 247.842 85.791,249.466 84.692,250.349 83.887 C 251.233 83.081,252.175 82.397,252.443 82.367 C 252.710 82.337,253.591 82.275,254.399 82.228 C 255.208 82.182,256.200 81.844,256.604 81.479 C 257.830 80.369,259.353 80.137,264.515 80.272 L 269.460 80.402 274.305 82.774 M121.789 82.635 C 121.634 82.792,119.964 82.945,118.078 82.976 C 114.478 83.035,113.731 83.313,106.062 87.450 C 97.241 92.209,92.244 107.632,96.326 117.503 C 100.055 126.520,108.731 135.127,114.127 135.162 C 114.629 135.165,115.742 135.421,116.602 135.731 C 118.752 136.505,125.365 136.513,127.209 135.742 C 127.980 135.420,129.125 135.156,129.753 135.156 C 130.381 135.156,132.425 134.350,134.295 133.364 C 145.500 127.460,152.058 112.973,148.381 102.248 C 146.053 95.454,141.823 89.410,137.891 87.255 C 131.111 83.539,129.239 82.772,127.116 82.842 C 126.060 82.876,124.492 82.780,123.633 82.627 C 122.773 82.474,121.944 82.478,121.789 82.635 M127.344 84.315 C 129.462 84.500,130.615 84.814,131.506 85.449 C 132.183 85.933,132.977 86.328,133.270 86.328 C 133.563 86.328,134.450 86.768,135.240 87.305 C 136.031 87.842,136.966 88.281,137.318 88.281 C 138.983 88.281,142.871 92.941,145.290 97.838 L 147.656 102.626 147.656 108.997 C 147.656 115.773,147.188 117.616,144.468 121.545 C 144.073 122.115,143.750 122.885,143.750 123.255 C 143.750 125.643,133.522 133.594,130.450 133.594 C 129.796 133.594,128.436 134.033,127.427 134.570 C 125.856 135.406,125.080 135.547,122.034 135.547 C 118.989 135.547,118.211 135.406,116.639 134.570 C 115.629 134.033,114.240 133.592,113.554 133.589 C 112.867 133.586,111.564 133.161,110.659 132.643 C 109.754 132.126,108.617 131.577,108.131 131.422 C 105.723 130.658,101.278 125.412,98.747 120.347 L 96.289 115.430 96.289 108.984 C 96.289 103.824,96.414 102.305,96.914 101.367 C 99.244 97.000,100.387 94.665,100.389 94.268 C 100.402 91.188,112.460 84.379,117.920 84.369 C 119.773 84.366,121.553 84.186,121.875 83.969 C 122.197 83.753,122.900 83.684,123.438 83.817 C 123.975 83.950,125.732 84.174,127.344 84.315 M261.636 88.477 C 260.627 89.014,259.486 89.454,259.100 89.455 C 256.215 89.464,249.928 94.707,248.044 98.676 C 247.545 99.726,246.814 101.053,246.420 101.623 C 245.008 103.665,245.399 108.198,247.316 112.006 C 249.601 116.545,255.412 122.266,257.737 122.266 C 258.610 122.266,260.042 122.682,261.095 123.242 C 263.395 124.465,264.995 124.462,266.992 123.232 C 268.002 122.610,269.137 122.269,270.201 122.268 C 271.967 122.265,279.190 115.812,280.097 113.427 C 280.757 111.692,280.563 99.730,279.851 98.230 C 278.490 95.361,272.263 89.996,269.936 89.687 C 268.782 89.534,267.104 88.979,266.208 88.454 C 264.185 87.268,263.903 87.270,261.636 88.477 M266.859 89.844 C 268.374 90.488,270.059 91.016,270.604 91.016 C 272.582 91.016,278.737 97.805,279.104 100.391 C 279.508 103.246,279.515 108.640,279.117 111.429 C 278.628 114.859,272.649 121.094,269.850 121.094 C 269.231 121.094,267.825 121.549,266.726 122.106 C 264.511 123.229,263.997 123.209,260.156 121.857 C 258.760 121.366,257.111 120.787,256.493 120.570 C 254.440 119.851,250.196 115.218,248.517 111.862 C 244.406 103.649,249.471 93.783,259.616 90.241 C 261.954 89.425,263.921 88.738,263.986 88.714 C 264.052 88.691,265.345 89.199,266.859 89.844 M115.471 92.547 C 114.849 92.957,113.970 93.722,113.518 94.247 C 113.065 94.771,111.850 95.508,110.817 95.884 C 108.760 96.632,105.469 102.223,105.469 104.970 C 105.469 105.616,105.117 106.592,104.688 107.138 C 104.258 107.684,103.906 108.515,103.906 108.984 C 103.906 109.454,104.258 110.285,104.688 110.831 C 105.117 111.377,105.469 112.395,105.469 113.093 C 105.469 116.435,109.550 122.524,112.811 124.049 C 114.036 124.622,115.337 125.353,115.701 125.672 C 116.216 126.125,117.541 126.256,121.684 126.263 L 127.005 126.272 129.917 124.774 C 133.595 122.882,135.001 121.515,136.382 118.486 C 136.987 117.159,137.642 115.974,137.838 115.853 C 138.034 115.732,138.314 115.158,138.459 114.578 C 138.605 113.999,139.064 113.047,139.479 112.464 C 140.271 111.351,140.593 106.518,139.904 106.092 C 139.723 105.980,138.647 103.992,137.515 101.674 C 135.249 97.037,133.064 94.410,130.881 93.698 C 130.117 93.449,129.073 92.920,128.561 92.521 C 127.154 91.428,117.139 91.448,115.471 92.547 M129.606 94.431 C 134.046 96.655,139.063 104.389,139.063 109.008 C 139.063 113.595,134.133 121.270,129.686 123.607 C 120.508 128.430,109.126 123.434,106.615 113.479 C 106.398 112.618,105.942 111.266,105.602 110.475 C 105.021 109.125,105.032 108.906,105.778 106.959 C 106.216 105.817,106.984 103.746,107.486 102.358 C 108.433 99.737,110.709 96.993,113.086 95.605 C 113.730 95.229,114.855 94.482,115.585 93.945 C 117.952 92.204,125.696 92.472,129.606 94.431 M256.089 160.405 C 249.591 163.344,243.359 168.016,243.359 169.949 C 243.359 170.216,242.945 170.978,242.439 171.643 C 241.933 172.308,241.393 173.291,241.240 173.828 C 241.087 174.365,240.527 175.634,239.995 176.647 C 239.067 178.415,239.028 178.785,239.025 185.727 L 239.023 192.965 240.602 196.333 C 241.470 198.186,242.789 200.376,243.534 201.201 C 244.279 202.025,245.230 203.369,245.648 204.189 C 246.100 205.074,246.938 205.931,247.716 206.302 C 248.435 206.646,249.845 207.554,250.849 208.320 C 253.092 210.034,254.800 210.938,255.793 210.938 C 256.208 210.938,257.715 211.377,259.142 211.914 C 262.842 213.307,268.039 213.305,271.035 211.910 C 272.184 211.375,273.611 210.938,274.207 210.938 C 277.329 210.938,286.215 204.283,288.289 200.391 C 289.951 197.272,291.016 194.775,291.016 193.994 C 291.016 193.538,291.367 192.239,291.797 191.109 C 292.878 188.266,292.873 182.915,291.788 180.524 C 291.363 179.587,291.016 178.318,291.016 177.704 C 291.016 173.364,282.850 163.777,276.612 160.792 L 273.242 159.180 266.211 159.094 L 259.180 159.007 256.089 160.405 M276.172 161.659 C 278.635 162.924,287.500 171.066,287.500 172.064 C 287.500 172.282,288.021 173.428,288.656 174.609 C 289.337 175.874,289.819 177.367,289.828 178.238 C 289.838 179.128,290.184 180.180,290.697 180.873 C 291.880 182.473,291.827 189.261,290.616 191.314 C 290.191 192.034,289.844 193.142,289.844 193.777 C 289.844 199.281,279.361 209.766,273.859 209.766 C 273.157 209.766,272.027 210.161,271.349 210.645 C 270.221 211.449,269.682 211.523,264.974 211.523 C 260.253 211.523,259.733 211.451,258.642 210.645 C 257.988 210.161,256.930 209.766,256.291 209.766 C 254.559 209.766,253.119 209.098,251.700 207.637 C 251.002 206.918,249.657 206.035,248.712 205.674 C 247.202 205.097,246.886 204.758,246.107 202.878 C 245.619 201.701,244.804 200.466,244.296 200.133 C 243.788 199.800,242.666 198.076,241.803 196.302 L 240.234 193.076 240.234 185.691 C 240.234 178.577,240.268 178.257,241.156 176.946 C 241.663 176.198,242.213 175.146,242.379 174.609 C 242.545 174.072,242.986 173.193,243.359 172.656 C 243.733 172.119,244.167 171.240,244.325 170.703 C 244.634 169.653,249.515 164.453,250.193 164.453 C 250.418 164.453,252.531 163.473,254.888 162.275 L 259.173 160.098 266.403 160.226 L 273.633 160.354 276.172 161.659 M113.477 161.859 C 112.402 162.328,110.820 163.089,109.961 163.549 C 107.522 164.854,102.402 169.810,101.401 171.835 C 100.913 172.824,100.230 174.160,99.885 174.805 C 96.504 181.122,95.526 190.789,97.856 194.864 C 98.391 195.799,98.828 196.991,98.828 197.514 C 98.828 201.912,109.767 211.853,115.791 212.929 C 116.666 213.085,118.086 213.484,118.945 213.816 C 121.281 214.717,125.428 214.627,127.761 213.623 C 129.053 213.068,130.086 212.873,130.890 213.034 C 132.325 213.320,135.112 212.168,137.023 210.499 C 137.727 209.883,139.045 209.005,139.952 208.547 C 143.554 206.728,148.559 199.817,149.253 195.703 C 149.416 194.736,149.934 192.891,150.404 191.602 C 151.476 188.663,151.316 184.056,150.040 181.120 C 149.588 180.082,149.219 178.801,149.219 178.275 C 149.219 177.056,147.613 173.870,146.485 172.852 C 146.009 172.422,145.264 171.367,144.829 170.508 C 143.288 167.464,141.500 166.105,134.809 162.888 L 130.751 160.938 123.090 160.972 C 116.113 161.003,115.255 161.082,113.477 161.859 M136.133 164.670 C 141.360 167.308,143.005 168.640,143.723 170.817 C 143.992 171.631,144.785 172.861,145.487 173.551 C 147.146 175.182,147.656 176.202,147.656 177.887 C 147.656 178.720,148.052 179.846,148.661 180.743 C 150.079 182.832,149.992 191.672,148.535 193.521 C 147.969 194.239,147.656 195.172,147.656 196.141 C 147.656 199.384,142.163 207.022,139.392 207.631 C 138.792 207.762,137.400 208.681,136.298 209.672 C 134.371 211.404,134.180 211.482,131.307 211.703 C 129.287 211.859,127.946 212.183,127.164 212.705 C 125.439 213.857,120.084 213.772,118.554 212.570 C 117.906 212.059,116.919 211.719,116.090 211.719 C 111.716 211.719,100.391 202.126,100.391 198.421 C 100.391 197.218,100.088 196.284,99.353 195.225 C 97.604 192.700,97.825 180.524,99.663 178.170 C 100.063 177.658,100.391 176.989,100.391 176.684 C 100.391 176.380,100.830 175.484,101.367 174.693 C 101.904 173.903,102.344 172.924,102.344 172.518 C 102.344 170.363,109.923 164.208,114.844 162.368 C 115.166 162.247,119.033 162.184,123.438 162.227 L 131.445 162.305 136.133 164.670 M261.718 168.476 C 261.014 168.921,259.467 169.418,258.280 169.579 C 255.848 169.909,250.286 174.762,249.799 176.979 C 249.672 177.556,249.138 178.612,248.612 179.325 C 247.320 181.076,247.161 188.714,248.384 190.279 C 248.784 190.792,249.246 191.650,249.412 192.188 C 250.003 194.109,254.992 199.748,257.791 201.658 C 259.583 202.880,270.905 202.659,272.656 201.367 C 273.384 200.830,274.199 200.391,274.468 200.391 C 276.181 200.391,279.008 197.602,280.488 194.452 C 280.922 193.529,281.532 192.334,281.843 191.797 C 282.253 191.091,282.412 189.505,282.416 186.077 L 282.422 181.334 280.566 177.849 C 276.369 169.967,266.844 165.230,261.718 168.476 M271.735 170.450 C 275.483 172.356,278.124 175.028,279.892 178.705 L 281.339 181.713 281.141 186.462 C 280.840 193.699,278.630 197.278,272.743 200.067 C 269.046 201.818,260.410 201.964,257.935 200.317 C 249.874 194.953,246.654 185.277,250.541 178.097 C 252.083 175.249,256.133 171.094,257.367 171.094 C 257.798 171.094,259.352 170.610,260.821 170.020 C 264.707 168.456,268.074 168.589,271.735 170.450 M118.189 170.193 C 117.746 170.450,116.328 171.168,115.039 171.789 C 111.395 173.545,107.981 177.406,107.726 180.060 C 107.611 181.258,107.191 182.542,106.696 183.212 C 105.465 184.877,105.531 188.604,106.838 191.179 C 107.374 192.236,107.813 193.704,107.813 194.440 C 107.813 196.346,112.107 200.796,115.538 202.446 C 116.886 203.094,118.083 203.776,118.198 203.961 C 118.312 204.146,120.925 204.297,124.004 204.297 L 129.603 204.297 131.512 202.580 C 132.562 201.636,134.113 200.575,134.958 200.222 C 137.012 199.363,137.772 198.619,138.321 196.925 C 138.574 196.146,139.149 194.983,139.600 194.341 C 140.790 192.646,140.853 181.674,139.682 179.866 C 138.718 178.377,130.139 169.932,129.550 169.891 C 125.755 169.632,118.842 169.815,118.189 170.193 M131.210 172.528 C 133.250 174.154,137.299 178.261,138.192 179.608 C 141.371 184.409,139.188 196.144,134.565 199.096 C 133.494 199.780,132.266 200.678,131.836 201.092 C 129.055 203.768,121.268 204.082,116.529 201.709 C 113.179 200.031,108.984 195.978,108.984 194.418 C 108.984 193.889,108.545 192.463,108.008 191.248 C 106.716 188.328,106.718 185.651,108.012 182.871 C 108.547 181.722,108.986 180.316,108.988 179.746 C 108.994 178.267,113.238 173.954,116.215 172.403 C 118.490 171.217,118.706 171.182,123.983 171.139 L 129.412 171.094 131.210 172.528 M192.468 201.602 C 191.655 201.791,190.477 202.211,189.850 202.536 C 189.224 202.860,188.179 203.125,187.530 203.125 C 186.348 203.125,180.335 205.910,179.861 206.676 C 179.723 206.900,178.880 207.598,177.988 208.227 C 173.328 211.515,169.059 219.083,168.858 224.414 C 168.355 237.740,169.278 240.656,176.219 247.665 C 179.535 251.014,180.455 251.699,183.813 253.322 L 187.633 255.168 195.110 255.162 L 202.586 255.156 206.059 253.514 C 213.463 250.013,220.115 242.323,221.095 236.133 C 221.265 235.059,221.678 233.477,222.013 232.617 C 222.880 230.392,222.813 225.713,221.875 223.047 C 221.459 221.865,221.114 220.610,221.107 220.258 C 221.086 219.232,219.828 216.697,218.509 215.022 C 217.839 214.172,216.929 212.773,216.487 211.914 C 215.575 210.143,214.183 208.869,210.588 206.517 C 206.166 203.625,205.288 203.138,204.479 203.131 C 204.042 203.128,202.723 202.795,201.549 202.393 C 198.991 201.515,194.512 201.125,192.468 201.602 M201.532 203.431 C 202.215 203.936,203.271 204.297,204.067 204.297 C 205.836 204.297,207.255 204.960,208.035 206.151 C 208.378 206.674,209.583 207.512,210.712 208.011 C 213.199 209.111,215.219 211.045,215.700 212.788 C 215.896 213.497,216.642 214.663,217.359 215.379 C 218.994 217.015,219.531 218.011,219.531 219.411 C 219.531 220.018,219.986 221.368,220.541 222.411 C 221.781 224.740,221.857 232.085,220.655 233.456 C 220.306 233.854,219.930 235.033,219.820 236.076 C 219.709 237.119,219.255 238.463,218.811 239.064 C 218.367 239.665,217.883 240.635,217.736 241.220 C 217.486 242.217,215.247 245.164,213.207 247.181 C 208.696 251.641,204.250 253.871,199.800 253.906 C 198.084 253.920,196.064 253.944,195.313 253.960 C 186.041 254.157,183.305 253.098,177.039 246.884 C 171.169 241.064,169.875 237.824,169.933 229.102 C 169.967 224.085,170.587 219.982,171.584 218.167 C 172.174 217.095,172.656 216.059,172.656 215.866 C 172.656 214.583,180.469 207.043,182.422 206.441 C 182.959 206.275,184.011 205.725,184.759 205.218 C 185.583 204.660,186.690 204.297,187.570 204.297 C 188.386 204.297,189.843 203.855,190.897 203.288 C 193.432 201.924,199.606 202.008,201.532 203.431 M184.491 215.332 C 181.774 217.997,180.502 219.582,179.648 221.372 C 179.011 222.706,178.320 223.903,178.112 224.031 C 177.356 224.499,177.652 233.383,178.459 234.420 C 178.857 234.932,179.390 235.987,179.643 236.763 C 180.287 238.737,184.712 243.210,187.011 244.210 C 188.032 244.655,189.169 245.282,189.538 245.605 C 190.499 246.446,199.309 246.470,200.295 245.634 C 200.670 245.316,201.951 244.591,203.141 244.024 C 204.606 243.325,206.391 241.882,208.663 239.560 L 212.021 236.128 212.292 232.029 C 212.881 223.112,212.711 222.595,207.397 217.188 C 201.646 211.334,202.532 211.719,194.793 211.719 L 188.176 211.719 184.491 215.332 M202.444 213.914 C 204.376 215.157,209.620 220.471,210.446 222.021 C 211.645 224.273,211.361 234.723,210.054 236.436 C 200.958 248.362,186.767 247.878,180.292 235.421 C 176.698 228.508,180.076 218.834,187.871 213.715 C 190.138 212.226,200.032 212.361,202.444 213.914 " stroke="none" fill="#9f9f9f" fill-rule="evenodd"></path><path id="path4" d="M188.086 38.555 C 180.829 40.254,168.750 48.457,168.750 51.686 C 168.750 51.988,168.337 52.843,167.833 53.586 C 167.329 54.329,166.548 55.979,166.098 57.254 C 165.649 58.528,165.014 60.273,164.689 61.133 C 163.597 64.015,163.857 69.519,165.234 72.656 C 165.879 74.125,166.406 75.847,166.406 76.482 C 166.406 77.118,166.670 77.858,166.992 78.125 C 167.314 78.392,167.578 78.847,167.578 79.136 C 167.578 79.424,168.083 80.238,168.700 80.943 C 169.317 81.649,170.359 83.075,171.014 84.112 C 171.715 85.219,172.984 86.484,174.091 87.179 C 175.128 87.828,176.416 88.772,176.953 89.275 C 177.490 89.779,179.656 90.992,181.766 91.970 L 185.602 93.750 192.323 93.750 C 197.595 93.750,199.221 93.627,199.862 93.178 C 200.311 92.863,201.632 92.249,202.797 91.813 C 206.718 90.346,214.453 84.383,214.453 82.828 C 214.453 82.635,214.697 82.234,214.995 81.935 C 215.612 81.319,216.716 79.166,218.452 75.195 C 220.358 70.838,220.526 62.826,218.787 59.256 C 218.122 57.891,217.578 56.227,217.578 55.559 C 217.578 54.890,217.400 54.233,217.182 54.098 C 216.964 53.963,216.451 53.206,216.042 52.415 C 211.735 44.092,196.564 36.570,188.086 38.555 M197.683 39.692 C 206.327 42.258,217.172 51.508,217.191 56.332 C 217.193 56.824,217.627 58.105,218.155 59.180 C 219.032 60.961,219.117 61.603,219.128 66.489 C 219.142 72.263,218.957 73.054,216.365 78.320 C 212.941 85.277,210.103 87.920,202.371 91.352 L 198.729 92.969 192.111 92.969 C 184.949 92.969,182.005 92.249,178.428 89.621 C 177.724 89.104,176.003 87.906,174.603 86.959 C 172.982 85.862,171.822 84.742,171.409 83.875 C 171.051 83.126,170.243 81.921,169.612 81.198 C 168.143 79.514,166.797 76.861,166.797 75.649 C 166.797 75.129,166.343 73.712,165.788 72.500 C 163.765 68.081,164.753 60.242,168.058 54.492 C 168.305 54.063,168.899 52.920,169.378 51.953 C 173.608 43.412,188.493 36.964,197.683 39.692 M188.086 50.739 C 182.866 52.096,177.251 56.994,176.797 60.586 C 175.583 70.188,176.219 72.984,180.638 77.469 C 187.884 84.823,196.306 84.863,203.453 77.578 C 208.440 72.496,210.064 67.241,208.012 62.832 C 207.477 61.682,207.037 60.253,207.035 59.654 C 207.031 58.459,201.025 51.817,199.515 51.337 C 197.564 50.718,189.742 50.309,188.086 50.739 M197.038 51.410 C 199.976 51.741,205.516 56.607,206.277 59.526 C 206.508 60.410,207.035 61.847,207.450 62.721 C 211.173 70.570,201.513 82.545,191.697 82.250 C 182.491 81.973,175.042 72.852,176.917 64.153 C 177.182 62.922,177.493 61.160,177.607 60.239 C 177.780 58.850,178.197 58.183,180.050 56.333 C 183.270 53.117,184.381 52.411,187.577 51.551 C 190.410 50.789,191.392 50.774,197.038 51.410 M257.481 79.105 C 256.331 79.640,254.857 80.078,254.204 80.078 C 253.063 80.078,249.759 81.826,248.479 83.106 C 248.141 83.444,246.942 84.310,245.813 85.032 C 244.685 85.754,243.492 86.866,243.162 87.503 C 242.833 88.140,242.072 89.235,241.472 89.936 C 236.676 95.539,234.436 108.197,237.153 114.345 C 238.660 117.757,239.942 120.106,240.835 121.094 C 241.321 121.631,242.250 122.919,242.900 123.955 C 243.594 125.063,244.859 126.332,245.966 127.033 C 247.003 127.688,248.429 128.729,249.135 129.347 C 249.840 129.964,250.654 130.469,250.942 130.469 C 251.231 130.469,251.686 130.732,251.953 131.055 C 252.221 131.377,253.077 131.643,253.856 131.645 C 254.642 131.648,256.030 132.083,256.973 132.622 C 259.044 133.806,268.374 134.103,270.033 133.039 C 270.509 132.733,271.864 132.172,273.044 131.791 C 274.223 131.410,275.786 130.693,276.516 130.198 C 277.246 129.702,278.090 129.297,278.392 129.297 C 279.397 129.297,286.266 122.269,287.324 120.160 C 287.875 119.062,288.564 117.725,288.857 117.188 C 291.524 112.293,292.783 103.657,291.256 100.730 C 290.961 100.165,290.337 98.552,289.869 97.147 C 289.401 95.741,288.774 94.387,288.475 94.139 C 288.175 93.891,287.727 93.042,287.477 92.254 C 286.853 90.282,280.460 83.764,278.125 82.721 C 277.158 82.289,276.104 81.717,275.781 81.450 C 275.459 81.184,274.141 80.601,272.852 80.155 C 271.563 79.708,269.805 79.077,268.945 78.751 C 266.249 77.730,260.022 77.922,257.481 79.105 M272.070 80.474 C 273.789 81.191,275.635 82.075,276.172 82.439 C 276.709 82.803,277.588 83.236,278.125 83.401 C 281.664 84.487,287.359 92.133,290.199 99.609 C 292.071 104.536,290.749 113.753,287.512 118.355 C 287.132 118.894,286.686 119.775,286.520 120.313 C 286.034 121.891,280.125 127.700,277.930 128.758 C 276.855 129.275,275.537 129.951,275.000 130.259 C 269.351 133.504,261.801 134.258,257.124 132.045 C 255.778 131.409,254.433 130.982,254.134 131.096 C 253.421 131.370,250.583 129.907,248.689 128.289 C 247.861 127.582,246.603 126.728,245.894 126.391 C 245.134 126.030,244.178 125.052,243.566 124.007 C 242.994 123.032,242.007 121.643,241.372 120.920 C 240.737 120.196,239.502 118.055,238.627 116.160 L 237.035 112.717 237.080 106.047 C 237.133 98.125,237.942 95.290,241.322 91.189 C 241.991 90.378,242.927 88.981,243.403 88.084 C 243.975 87.006,244.834 86.154,245.944 85.566 C 246.866 85.076,248.287 84.107,249.103 83.411 C 251.043 81.756,252.825 80.860,254.180 80.858 C 254.781 80.857,256.152 80.405,257.227 79.854 C 260.266 78.294,267.576 78.599,272.070 80.474 M114.966 82.425 C 114.576 82.533,113.555 82.994,112.695 83.449 C 111.836 83.903,110.693 84.411,110.156 84.577 C 104.902 86.202,98.458 93.074,96.086 99.581 C 95.649 100.778,95.077 102.180,94.814 102.696 C 93.784 104.717,94.190 113.900,95.448 116.992 C 98.255 123.899,103.161 130.392,107.227 132.582 C 107.871 132.929,108.662 133.376,108.984 133.575 C 113.642 136.448,122.153 137.793,126.877 136.403 C 128.315 135.979,129.797 135.642,130.169 135.655 C 134.946 135.812,145.173 126.166,147.700 119.121 C 148.050 118.143,148.623 116.789,148.973 116.113 C 149.691 114.724,149.923 103.212,149.247 102.520 C 149.048 102.315,148.456 101.003,147.932 99.604 C 145.933 94.264,141.759 88.712,138.477 87.024 C 137.617 86.583,136.417 85.806,135.810 85.298 C 135.203 84.790,134.355 84.375,133.926 84.375 C 133.498 84.375,132.325 83.892,131.320 83.301 C 129.542 82.256,117.817 81.627,114.966 82.425 M127.116 82.842 C 129.239 82.772,131.111 83.539,137.891 87.255 C 141.823 89.410,146.053 95.454,148.381 102.248 C 152.058 112.973,145.500 127.460,134.295 133.364 C 132.425 134.350,130.381 135.156,129.753 135.156 C 129.125 135.156,127.980 135.420,127.209 135.742 C 125.365 136.513,118.752 136.505,116.602 135.731 C 115.742 135.421,114.629 135.165,114.127 135.162 C 108.731 135.127,100.055 126.520,96.326 117.503 C 92.244 107.632,97.241 92.209,106.062 87.450 C 113.731 83.313,114.478 83.035,118.078 82.976 C 119.964 82.945,121.634 82.792,121.789 82.635 C 121.944 82.478,122.773 82.474,123.633 82.627 C 124.492 82.780,126.060 82.876,127.116 82.842 M259.616 90.241 C 249.471 93.783,244.406 103.649,248.517 111.862 C 250.196 115.218,254.440 119.851,256.493 120.570 C 257.111 120.787,258.760 121.366,260.156 121.857 C 263.997 123.209,264.511 123.229,266.726 122.106 C 267.825 121.549,269.231 121.094,269.850 121.094 C 272.649 121.094,278.628 114.859,279.117 111.429 C 279.515 108.640,279.508 103.246,279.104 100.391 C 278.737 97.805,272.582 91.016,270.604 91.016 C 270.059 91.016,268.374 90.488,266.859 89.844 C 265.345 89.199,264.052 88.691,263.986 88.714 C 263.921 88.738,261.954 89.425,259.616 90.241 M267.846 90.872 C 268.960 91.381,270.224 91.797,270.654 91.797 C 272.108 91.797,277.927 97.539,278.297 99.338 C 279.193 103.699,279.417 106.842,278.976 108.858 C 278.749 109.894,278.453 111.421,278.318 112.250 C 277.940 114.579,272.180 120.313,270.218 120.313 C 269.455 120.313,268.065 120.750,267.130 121.284 C 264.979 122.514,263.246 122.514,260.606 121.285 C 259.456 120.750,258.171 120.313,257.748 120.313 C 253.807 120.312,247.656 111.620,247.656 106.052 C 247.656 96.073,259.589 87.100,267.846 90.872 M115.585 93.945 C 114.855 94.482,113.730 95.229,113.086 95.605 C 110.709 96.993,108.433 99.737,107.486 102.358 C 106.984 103.746,106.216 105.817,105.778 106.959 C 105.032 108.906,105.021 109.125,105.602 110.475 C 105.942 111.266,106.398 112.618,106.615 113.479 C 109.126 123.434,120.508 128.430,129.686 123.607 C 134.133 121.270,139.063 113.595,139.063 109.008 C 139.063 106.860,136.044 100.246,133.791 97.459 C 130.415 93.283,119.381 91.153,115.585 93.945 M129.533 95.124 C 133.893 97.397,138.281 104.346,138.281 108.979 C 138.281 113.660,134.134 120.489,129.829 122.896 L 127.276 124.324 122.134 124.332 C 115.296 124.342,112.249 122.904,109.180 118.220 C 108.495 117.175,105.860 109.847,105.859 108.986 C 105.854 105.676,110.110 97.909,112.637 96.615 C 113.314 96.269,114.445 95.482,115.150 94.868 C 117.290 93.004,125.755 93.155,129.533 95.124 M202.513 111.318 C 199.623 113.367,198.592 114.576,198.115 116.482 C 195.145 128.345,210.125 133.584,215.376 122.518 C 218.745 115.420,208.863 106.815,202.513 111.318 M209.883 111.959 C 213.115 113.589,214.630 115.986,214.512 119.281 C 214.202 127.871,203.670 130.633,199.503 123.216 C 196.047 117.065,203.652 108.816,209.883 111.959 M173.737 112.718 C 171.588 113.836,170.937 114.714,169.675 118.191 L 168.752 120.733 169.517 123.004 C 172.414 131.604,182.236 132.362,186.932 124.348 C 191.127 117.190,181.480 108.687,173.737 112.718 M181.299 113.437 C 189.673 117.173,187.726 128.516,178.711 128.516 C 173.732 128.516,169.212 123.987,170.179 119.968 C 171.625 113.958,176.305 111.209,181.299 113.437 M216.992 135.481 C 209.702 140.115,210.839 149.248,219.106 152.453 C 222.123 153.622,227.388 151.593,229.154 148.579 C 233.935 140.421,224.763 130.543,216.992 135.481 M224.609 136.149 C 226.855 137.306,228.727 140.128,229.563 143.615 C 230.529 147.647,223.433 153.107,219.264 151.540 C 217.798 150.989,214.961 148.204,214.030 146.402 C 210.793 140.138,218.276 132.886,224.609 136.149 M161.908 136.351 C 159.079 137.174,155.814 142.142,156.047 145.269 C 156.512 151.511,165.105 156.434,169.588 153.027 C 172.304 150.963,173.809 149.494,174.020 148.700 C 174.145 148.233,174.444 147.192,174.686 146.387 C 175.472 143.767,173.489 139.249,170.632 137.147 C 168.880 135.859,164.859 135.492,161.908 136.351 M167.773 137.464 C 173.790 138.329,175.921 146.830,171.039 150.488 C 164.904 155.082,157.422 152.026,157.422 144.926 C 157.422 140.831,162.278 135.885,165.234 136.968 C 165.557 137.086,166.699 137.309,167.773 137.464 M205.107 159.185 C 197.177 163.529,197.667 173.357,205.961 176.293 L 208.789 177.294 211.133 176.502 C 213.934 175.555,214.124 175.409,216.166 172.657 C 221.545 165.405,212.924 154.903,205.107 159.185 M258.341 158.775 C 257.892 159.090,256.511 159.727,255.273 160.190 C 250.015 162.157,244.603 166.381,242.773 169.946 C 242.270 170.927,241.580 171.959,241.241 172.240 C 240.902 172.522,240.625 173.057,240.625 173.430 C 240.625 173.803,240.098 175.097,239.453 176.305 L 238.281 178.501 238.281 185.692 L 238.281 192.883 239.648 195.649 C 240.400 197.171,241.016 198.560,241.016 198.737 C 241.016 198.913,241.882 200.082,242.941 201.335 C 244.001 202.588,245.064 204.074,245.305 204.638 C 245.667 205.488,248.361 207.540,252.292 209.961 C 252.641 210.176,253.394 210.659,253.965 211.035 C 254.536 211.411,255.456 211.719,256.008 211.719 C 256.561 211.719,258.181 212.158,259.608 212.695 C 261.576 213.436,262.949 213.672,265.293 213.672 C 267.710 213.672,268.888 213.459,270.703 212.695 C 271.979 212.158,273.512 211.704,274.109 211.687 C 274.707 211.669,276.250 211.064,277.539 210.342 C 278.828 209.621,280.498 208.687,281.250 208.267 C 282.799 207.403,287.518 202.587,288.457 200.912 C 291.152 196.100,291.797 194.712,291.797 193.721 C 291.797 193.097,292.148 191.662,292.578 190.532 C 293.616 187.800,293.616 183.888,292.578 181.157 C 292.149 180.026,291.797 178.550,291.797 177.876 C 291.797 174.536,282.043 161.719,279.502 161.719 C 279.232 161.719,278.592 161.393,278.080 160.994 C 277.568 160.596,276.445 160.044,275.586 159.767 C 274.727 159.490,273.677 159.025,273.253 158.733 C 272.103 157.942,259.480 157.977,258.341 158.775 M276.612 160.792 C 282.850 163.777,291.016 173.364,291.016 177.704 C 291.016 178.318,291.363 179.587,291.788 180.524 C 292.873 182.915,292.878 188.266,291.797 191.109 C 291.367 192.239,291.016 193.538,291.016 193.994 C 291.016 194.775,289.951 197.272,288.289 200.391 C 286.215 204.283,277.329 210.938,274.207 210.938 C 273.611 210.938,272.184 211.375,271.035 211.910 C 268.039 213.305,262.842 213.307,259.142 211.914 C 257.715 211.377,256.208 210.938,255.793 210.938 C 254.800 210.938,253.092 210.034,250.849 208.320 C 249.845 207.554,248.435 206.646,247.716 206.302 C 246.938 205.931,246.100 205.074,245.648 204.189 C 245.230 203.369,244.279 202.025,243.534 201.201 C 242.789 200.376,241.470 198.186,240.602 196.333 L 239.023 192.965 239.025 185.727 C 239.028 178.785,239.067 178.415,239.995 176.647 C 240.527 175.634,241.087 174.365,241.240 173.828 C 241.393 173.291,241.933 172.308,242.439 171.643 C 242.945 170.978,243.359 170.216,243.359 169.949 C 243.359 168.016,249.591 163.344,256.089 160.405 L 259.180 159.007 266.211 159.094 L 273.242 159.180 276.612 160.792 M211.371 159.976 C 218.806 162.599,218.158 173.455,210.434 175.682 C 206.114 176.927,199.728 171.751,200.510 167.638 C 201.702 161.367,206.240 158.166,211.371 159.976 M178.032 160.053 C 175.371 160.263,172.766 162.840,171.598 166.418 C 168.512 175.870,182.639 182.755,187.757 174.294 C 188.107 173.715,188.720 172.766,189.118 172.184 C 192.100 167.833,186.488 159.445,180.859 159.838 C 180.322 159.876,179.050 159.972,178.032 160.053 M114.063 160.923 C 113.311 161.326,112.256 161.857,111.719 162.104 C 107.745 163.928,102.434 168.604,100.911 171.620 C 100.352 172.727,99.567 174.052,99.166 174.564 C 98.765 175.077,98.438 175.806,98.438 176.185 C 98.438 176.564,97.910 177.876,97.266 179.102 C 96.116 181.288,96.094 181.438,96.094 187.155 C 96.094 192.906,96.109 193.007,97.266 195.057 C 97.910 196.199,98.438 197.669,98.438 198.324 C 98.438 198.978,98.701 199.733,99.023 200.000 C 99.346 200.267,99.609 200.702,99.609 200.966 C 99.609 201.515,103.189 205.569,105.990 208.192 C 108.180 210.244,114.392 213.670,115.936 213.677 C 116.517 213.680,118.106 214.031,119.468 214.458 C 122.541 215.421,124.204 215.420,126.953 214.453 C 128.135 214.037,129.927 213.692,130.936 213.685 C 132.802 213.672,135.683 212.439,137.298 210.964 C 137.731 210.568,138.872 209.850,139.832 209.367 C 143.561 207.494,149.602 199.337,149.613 196.159 C 149.615 195.586,150.055 194.177,150.590 193.028 C 152.002 189.994,152.000 184.290,150.586 181.092 C 150.049 179.878,149.609 178.369,149.609 177.741 C 149.609 176.630,148.891 175.301,146.546 172.070 C 145.922 171.211,145.187 170.068,144.913 169.531 C 143.831 167.410,140.050 164.698,134.487 162.053 L 130.498 160.156 122.964 160.174 C 116.365 160.189,115.260 160.282,114.063 160.923 M134.809 162.888 C 141.500 166.105,143.288 167.464,144.829 170.508 C 145.264 171.367,146.009 172.422,146.485 172.852 C 147.613 173.870,149.219 177.056,149.219 178.275 C 149.219 178.801,149.588 180.082,150.040 181.120 C 151.316 184.056,151.476 188.663,150.404 191.602 C 149.934 192.891,149.416 194.736,149.253 195.703 C 148.559 199.817,143.554 206.728,139.952 208.547 C 139.045 209.005,137.727 209.883,137.023 210.499 C 135.112 212.168,132.325 213.320,130.890 213.034 C 130.086 212.873,129.053 213.068,127.761 213.623 C 125.428 214.627,121.281 214.717,118.945 213.816 C 118.086 213.484,116.666 213.085,115.791 212.929 C 109.767 211.853,98.828 201.912,98.828 197.514 C 98.828 196.991,98.391 195.799,97.856 194.864 C 95.526 190.789,96.504 181.122,99.885 174.805 C 100.230 174.160,100.913 172.824,101.401 171.835 C 102.402 169.810,107.522 164.854,109.961 163.549 C 114.615 161.058,114.869 161.008,123.090 160.972 L 130.751 160.938 134.809 162.888 M183.659 161.674 C 191.999 165.303,189.442 176.563,180.277 176.563 C 176.049 176.563,174.682 175.791,173.234 172.584 C 170.842 167.285,173.325 161.976,178.516 161.292 C 181.552 160.892,181.925 160.919,183.659 161.674 M260.821 170.020 C 259.352 170.610,257.798 171.094,257.367 171.094 C 256.133 171.094,252.083 175.249,250.541 178.097 C 246.654 185.277,249.874 194.953,257.935 200.317 C 260.410 201.964,269.046 201.818,272.743 200.067 C 278.630 197.278,280.840 193.699,281.141 186.462 L 281.339 181.713 279.892 178.705 C 276.105 170.830,267.991 167.135,260.821 170.020 M271.734 171.090 C 278.418 174.863,280.616 178.659,280.572 186.358 C 280.536 192.725,278.365 196.528,273.287 199.117 L 270.508 200.534 265.039 200.537 C 260.740 200.539,259.320 200.404,258.398 199.907 C 256.678 198.979,252.531 194.925,251.802 193.457 C 251.456 192.759,250.864 191.616,250.488 190.918 C 247.384 185.152,252.133 172.627,257.798 171.638 C 258.558 171.505,259.552 171.164,260.008 170.879 C 262.772 169.151,268.479 169.254,271.734 171.090 M116.215 172.403 C 113.238 173.954,108.994 178.267,108.988 179.746 C 108.986 180.316,108.547 181.722,108.012 182.871 C 106.718 185.651,106.716 188.328,108.008 191.248 C 108.545 192.463,108.984 193.889,108.984 194.418 C 108.984 195.978,113.179 200.031,116.529 201.709 C 121.268 204.082,129.055 203.768,131.836 201.092 C 132.266 200.678,133.494 199.780,134.565 199.096 C 139.188 196.144,141.371 184.409,138.192 179.608 C 137.299 178.261,133.250 174.154,131.210 172.528 L 129.412 171.094 123.983 171.139 C 118.706 171.182,118.490 171.217,116.215 172.403 M129.189 171.855 C 129.665 171.875,135.117 176.354,135.611 177.131 C 135.753 177.356,136.329 178.066,136.890 178.711 C 137.452 179.355,137.981 180.234,138.068 180.664 C 139.015 185.391,139.144 186.657,138.921 189.062 C 138.354 195.161,136.953 197.169,130.136 201.658 C 128.111 202.992,119.435 202.640,116.456 201.104 C 113.788 199.728,109.766 195.817,109.766 194.599 C 109.766 194.175,109.328 192.887,108.793 191.738 C 107.420 188.789,107.419 184.842,108.789 182.264 C 109.326 181.254,109.769 180.041,109.774 179.569 C 109.788 178.135,113.769 174.328,116.725 172.922 C 119.360 171.668,121.082 171.521,129.189 171.855 M190.820 201.580 C 189.746 202.000,188.337 202.343,187.688 202.343 C 182.736 202.345,173.880 209.964,170.029 217.534 L 168.319 220.898 168.289 228.761 C 168.264 235.109,168.373 236.839,168.856 237.745 C 169.184 238.362,170.042 240.081,170.762 241.564 C 172.219 244.567,178.084 250.891,180.752 252.335 C 181.563 252.774,182.490 253.296,182.813 253.496 C 186.289 255.648,187.699 255.921,195.256 255.909 L 202.539 255.896 206.250 254.073 C 213.822 250.352,221.874 240.949,221.875 235.828 C 221.875 235.136,222.227 233.646,222.656 232.515 C 223.646 229.913,223.645 227.483,222.656 224.023 C 222.227 222.521,221.875 220.938,221.875 220.506 C 221.875 218.920,217.561 211.914,214.901 209.180 C 213.597 207.839,212.087 206.755,208.008 204.226 C 207.578 203.960,206.750 203.428,206.168 203.043 C 205.586 202.658,204.707 202.342,204.215 202.341 C 203.723 202.339,202.178 201.989,200.781 201.563 C 197.479 200.554,193.429 200.562,190.820 201.580 M201.549 202.393 C 202.723 202.795,204.042 203.128,204.479 203.131 C 205.288 203.138,206.166 203.625,210.588 206.517 C 214.183 208.869,215.575 210.143,216.487 211.914 C 216.929 212.773,217.839 214.172,218.509 215.022 C 219.828 216.697,221.086 219.232,221.107 220.258 C 221.114 220.610,221.459 221.865,221.875 223.047 C 222.813 225.713,222.880 230.392,222.013 232.617 C 221.678 233.477,221.265 235.059,221.095 236.133 C 220.115 242.323,213.463 250.013,206.059 253.514 L 202.586 255.156 195.110 255.162 L 187.633 255.168 183.813 253.322 C 175.790 249.445,169.074 240.684,168.839 233.789 C 168.698 229.665,168.700 228.581,168.858 224.414 C 169.059 219.083,173.328 211.515,177.988 208.227 C 178.880 207.598,179.723 206.900,179.861 206.676 C 180.335 205.910,186.348 203.125,187.530 203.125 C 188.179 203.125,189.224 202.860,189.850 202.536 C 192.667 201.079,197.546 201.020,201.549 202.393 M191.387 212.844 C 188.399 213.127,187.777 213.485,184.346 216.899 C 177.142 224.068,176.893 233.183,183.710 240.169 C 190.277 246.900,199.918 246.753,206.960 239.815 C 211.162 235.675,211.068 235.918,211.083 229.173 C 211.099 222.138,211.086 222.103,206.854 217.829 C 201.908 212.835,199.540 212.072,191.387 212.844 M203.439 215.339 C 205.520 216.932,208.546 220.071,209.720 221.856 C 210.234 222.638,210.347 223.943,210.335 228.939 L 210.320 235.063 209.174 236.575 C 200.816 247.603,186.718 246.950,180.898 235.265 C 176.852 227.143,182.779 214.408,190.972 213.618 C 197.104 213.027,201.147 213.585,203.439 215.339 M113.700 291.691 C 113.040 292.491,112.500 293.304,112.500 293.495 C 112.500 293.687,111.689 295.536,110.698 297.605 C 109.706 299.674,108.202 302.861,107.355 304.688 C 106.508 306.514,105.592 308.447,105.320 308.984 C 105.049 309.521,104.651 310.313,104.437 310.742 C 104.223 311.172,103.576 312.446,103.000 313.574 C 102.424 314.702,101.953 315.865,101.953 316.158 C 101.953 316.452,101.627 317.111,101.228 317.623 C 100.830 318.135,100.386 319.196,100.242 319.980 C 100.097 320.764,99.659 321.818,99.268 322.324 C 98.877 322.829,98.430 323.759,98.276 324.390 C 98.121 325.022,97.678 325.988,97.291 326.539 C 96.904 327.089,96.455 327.962,96.295 328.478 C 96.134 328.995,95.165 331.104,94.140 333.166 C 90.999 339.486,89.453 342.765,89.453 343.106 C 89.453 343.285,89.102 343.878,88.672 344.425 C 88.242 344.971,87.891 345.722,87.891 346.094 C 87.891 346.465,87.539 347.217,87.109 347.763 C 86.680 348.309,86.328 349.142,86.328 349.613 C 86.328 350.085,85.898 351.288,85.372 352.286 C 80.651 361.254,80.671 362.388,85.537 361.782 C 87.606 361.524,87.617 361.516,88.826 359.175 C 90.795 355.364,94.141 348.213,94.141 347.815 C 94.141 347.612,94.553 346.835,95.056 346.087 C 95.560 345.339,96.086 344.261,96.226 343.691 C 96.397 342.993,96.881 342.516,97.712 342.227 C 99.501 341.603,136.707 341.630,138.081 342.256 C 139.008 342.679,141.499 347.189,142.408 350.091 C 142.561 350.578,143.013 351.396,143.413 351.908 C 143.813 352.421,144.141 353.320,144.141 353.906 C 144.141 354.493,144.469 355.392,144.871 355.904 C 145.273 356.417,145.721 357.363,145.866 358.008 C 146.442 360.554,148.511 362.046,151.318 361.940 C 154.237 361.830,154.862 360.333,153.066 357.752 C 152.669 357.182,152.344 356.590,152.344 356.436 C 152.344 356.152,149.985 351.143,147.223 345.560 C 146.387 343.870,145.703 342.278,145.703 342.023 C 145.703 341.767,145.264 340.962,144.727 340.234 C 144.167 339.475,143.750 338.380,143.750 337.667 C 143.750 336.983,143.495 336.212,143.184 335.954 C 142.873 335.696,142.408 334.839,142.151 334.051 C 141.894 333.262,141.357 332.198,140.959 331.686 C 140.560 331.173,140.234 330.569,140.234 330.343 C 140.234 329.939,136.423 321.869,134.548 318.302 C 134.023 317.303,133.594 316.228,133.594 315.913 C 133.594 315.598,133.241 314.891,132.809 314.342 C 132.377 313.794,131.911 312.759,131.772 312.043 C 131.633 311.328,131.195 310.323,130.799 309.811 C 130.402 309.298,130.078 308.559,130.078 308.168 C 130.078 307.777,129.639 306.809,129.102 306.018 C 128.564 305.226,128.125 304.275,128.125 303.904 C 128.125 303.534,127.773 302.783,127.344 302.237 C 126.914 301.691,126.563 301.117,126.563 300.961 C 126.563 300.805,125.425 298.328,124.034 295.456 L 121.505 290.234 118.203 290.234 L 114.901 290.234 113.700 291.691 M123.241 296.358 C 124.580 298.974,125.776 301.435,125.899 301.827 C 126.023 302.219,126.378 302.979,126.690 303.516 C 128.000 305.776,130.469 311.308,130.469 311.984 C 130.469 312.386,132.023 315.875,133.923 319.737 C 141.485 335.109,142.578 337.435,142.578 338.166 C 142.578 338.584,144.872 343.554,147.675 349.211 C 153.121 360.203,153.168 360.365,150.951 360.624 C 148.664 360.891,145.313 356.589,145.313 353.386 C 145.313 353.104,144.107 350.426,142.633 347.433 C 138.936 339.925,141.475 340.621,117.858 340.641 C 95.142 340.661,96.021 340.461,93.916 346.094 C 93.796 346.416,92.171 349.756,90.306 353.516 L 86.914 360.352 85.250 360.472 C 82.829 360.647,82.837 360.028,85.321 355.172 C 86.519 352.829,87.500 350.519,87.500 350.039 C 87.500 349.267,89.682 344.665,99.076 325.624 C 100.444 322.853,101.563 320.245,101.563 319.831 C 101.563 319.416,103.518 315.092,105.909 310.222 C 108.299 305.352,111.284 299.229,112.543 296.617 C 115.123 291.260,114.936 291.425,118.314 291.527 L 120.808 291.602 123.241 296.358 M116.108 298.345 C 115.729 298.724,114.513 300.877,113.405 303.130 C 107.666 314.802,106.641 317.007,106.641 317.679 C 106.641 318.443,104.658 322.760,100.722 330.565 C 97.039 337.870,96.271 337.546,117.237 337.544 L 133.660 337.543 135.025 336.501 C 136.184 335.617,136.349 335.303,136.113 334.429 C 135.960 333.862,135.702 332.783,135.539 332.031 C 135.376 331.279,134.195 328.555,132.914 325.977 C 126.940 313.951,125.391 310.558,125.391 309.500 C 125.391 308.873,125.225 308.192,125.022 307.988 C 124.820 307.784,123.689 305.658,122.510 303.264 C 119.839 297.839,118.015 296.438,116.108 298.345 M118.893 299.161 C 119.690 300.042,122.102 304.877,122.464 306.319 C 122.608 306.894,123.062 307.668,123.473 308.040 C 123.950 308.472,124.219 309.234,124.219 310.156 C 124.219 311.102,124.488 311.841,125.000 312.305 C 125.430 312.694,125.781 313.266,125.781 313.577 C 125.781 313.888,126.210 314.960,126.733 315.958 C 128.458 319.247,129.972 322.445,130.274 323.438 C 130.438 323.975,130.888 324.864,131.275 325.414 C 131.662 325.965,132.106 326.931,132.260 327.563 C 132.415 328.194,132.866 329.130,133.263 329.643 C 133.660 330.155,133.984 331.044,133.984 331.619 C 133.984 332.193,134.242 333.004,134.558 333.421 C 135.363 334.486,135.291 335.447,134.369 335.941 C 133.527 336.391,101.098 336.570,100.383 336.128 C 99.773 335.751,99.938 334.389,100.730 333.263 C 101.132 332.693,101.589 331.787,101.747 331.250 C 101.905 330.713,102.432 329.570,102.918 328.711 C 103.403 327.852,104.009 326.503,104.264 325.715 C 104.519 324.926,104.977 324.074,105.283 323.820 C 105.589 323.567,105.949 322.773,106.083 322.057 C 106.217 321.340,106.662 320.452,107.070 320.082 C 107.478 319.713,107.813 318.960,107.813 318.410 C 107.813 317.860,108.494 315.998,109.327 314.272 C 112.016 308.700,113.954 304.522,114.447 303.236 C 114.711 302.544,115.173 301.776,115.472 301.528 C 115.771 301.279,116.016 300.759,116.016 300.371 C 116.016 298.711,117.805 297.958,118.893 299.161 M293.164 307.640 C 291.875 307.931,289.995 308.177,288.986 308.186 C 287.805 308.197,286.496 308.552,285.314 309.180 C 284.304 309.717,283.225 310.156,282.915 310.156 C 281.007 310.156,276.172 313.699,276.172 315.097 C 276.172 317.666,279.000 318.936,280.943 317.240 C 281.649 316.625,282.666 315.989,283.203 315.828 C 283.740 315.668,284.787 315.168,285.530 314.718 C 287.312 313.637,293.883 313.227,302.925 313.632 C 305.300 313.738,307.300 315.099,310.517 318.798 L 312.088 320.603 312.196 325.322 C 312.343 331.698,313.027 331.248,302.899 331.431 C 291.244 331.642,285.176 332.106,283.984 332.879 C 283.447 333.227,282.568 333.643,282.031 333.802 C 280.104 334.373,277.898 336.282,276.074 338.955 L 274.219 341.675 274.219 346.592 C 274.219 352.286,274.447 352.870,278.150 356.645 C 279.844 358.371,280.943 359.097,283.128 359.932 C 284.670 360.522,286.032 361.165,286.153 361.361 C 286.724 362.285,300.016 361.766,302.638 360.717 C 305.423 359.603,308.787 357.562,309.924 356.297 C 311.341 354.720,312.891 355.862,312.891 358.484 C 312.891 361.465,317.011 363.258,319.368 361.301 C 320.014 360.765,320.170 327.246,319.540 324.414 C 317.549 315.464,310.928 308.214,304.730 308.198 C 303.740 308.196,301.963 307.934,300.781 307.617 C 298.208 306.927,296.301 306.932,293.164 307.640 M260.352 307.817 C 259.707 307.979,258.179 308.131,256.957 308.157 C 255.734 308.182,254.614 308.397,254.468 308.634 C 254.321 308.870,253.608 309.312,252.883 309.615 C 250.927 310.432,248.390 312.454,246.689 314.551 C 245.862 315.571,245.050 316.406,244.886 316.406 C 244.026 316.406,243.312 315.020,243.399 313.520 C 243.665 308.934,243.183 308.203,239.894 308.203 C 236.460 308.203,236.719 306.021,236.719 334.991 C 236.719 364.604,236.341 361.952,240.540 361.836 C 243.973 361.740,243.728 363.094,243.756 344.131 L 243.781 327.148 245.311 323.998 C 246.956 320.612,249.913 317.259,252.336 316.032 C 253.092 315.649,254.326 315.008,255.078 314.606 C 256.156 314.031,257.117 313.900,259.623 313.986 C 263.560 314.122,264.063 313.757,264.063 310.762 C 264.063 308.056,262.943 307.168,260.352 307.817 M165.588 308.833 C 164.727 309.870,164.573 340.046,165.417 342.522 C 165.746 343.489,166.016 345.279,166.016 346.501 C 166.016 348.074,166.228 348.995,166.743 349.654 C 167.143 350.167,167.602 351.006,167.763 351.520 C 168.204 352.926,173.156 357.891,175.074 358.850 C 180.801 361.715,180.819 361.719,187.953 361.719 C 193.791 361.719,194.741 361.628,196.094 360.938 C 196.936 360.508,197.829 360.156,198.078 360.156 C 199.027 360.156,202.226 357.919,204.363 355.762 C 207.684 352.409,208.203 352.684,208.203 357.797 C 208.203 361.423,208.452 361.731,211.476 361.838 C 215.334 361.974,215.025 364.205,215.136 335.435 C 215.248 306.095,215.574 308.398,211.317 308.398 L 208.398 308.398 208.203 325.391 C 208.010 342.166,207.997 342.401,207.129 343.796 C 206.646 344.573,206.250 345.653,206.250 346.195 C 206.250 347.980,200.122 354.297,198.390 354.297 C 197.969 354.297,196.885 354.692,195.981 355.176 C 194.500 355.967,193.791 356.055,188.867 356.055 C 183.875 356.055,183.275 355.978,181.985 355.176 C 181.208 354.692,180.168 354.297,179.674 354.297 C 178.415 354.297,173.829 349.675,173.827 348.405 C 173.826 347.886,173.430 346.846,172.948 346.094 C 172.078 344.739,172.069 344.562,171.875 326.563 L 171.680 308.398 168.909 308.285 C 166.687 308.194,166.029 308.302,165.588 308.833 M301.427 308.789 C 302.199 309.111,303.594 309.375,304.529 309.375 C 309.758 309.375,315.877 315.403,317.814 322.461 C 318.232 323.982,318.351 328.356,318.355 342.247 L 318.359 360.080 317.123 360.511 C 315.235 361.169,314.063 360.251,314.063 358.115 C 314.063 356.808,313.814 356.226,312.814 355.194 C 311.239 353.570,311.268 353.566,309.056 355.635 C 308.039 356.586,305.893 358.036,304.287 358.858 L 301.367 360.352 294.312 360.473 L 287.256 360.594 283.960 359.050 C 277.468 356.009,275.377 352.962,275.417 346.598 C 275.459 339.698,277.346 336.949,284.061 334.007 C 286.391 332.985,291.016 332.997,291.016 334.024 C 291.016 334.642,289.038 335.659,286.429 336.382 C 280.985 337.892,277.484 343.964,279.301 348.744 C 282.187 356.337,285.919 358.150,297.635 357.652 C 304.111 357.377,303.525 357.631,308.517 352.924 C 313.542 348.185,313.867 347.489,313.867 341.471 C 313.867 334.507,314.280 334.767,303.201 334.760 C 292.707 334.754,291.687 334.553,294.043 332.955 C 294.990 332.313,296.040 332.216,302.930 332.139 C 307.227 332.090,310.961 332.046,311.228 332.041 C 312.512 332.015,314.107 328.813,313.853 326.772 C 313.718 325.690,313.550 324.014,313.481 323.047 C 313.411 322.080,313.338 321.084,313.318 320.833 C 313.266 320.184,310.323 316.822,307.917 314.664 L 305.874 312.831 301.277 312.233 C 297.591 311.753,296.060 311.720,293.555 312.068 C 291.836 312.306,289.703 312.501,288.815 312.500 C 287.031 312.500,281.540 315.007,280.283 316.395 C 279.126 317.674,277.083 316.682,277.407 314.998 C 277.693 313.512,286.457 309.395,289.441 309.345 C 290.415 309.329,291.826 309.079,292.578 308.789 C 294.474 308.059,299.680 308.059,301.427 308.789 M262.663 309.277 C 263.334 311.406,262.422 312.293,259.349 312.504 C 253.568 312.901,247.265 317.613,244.103 323.902 L 242.578 326.936 242.578 343.273 C 242.578 361.129,242.657 360.547,240.234 360.547 C 237.771 360.547,237.891 361.850,237.891 334.961 C 237.891 308.237,237.792 309.375,240.103 309.375 C 241.726 309.375,242.188 310.200,242.188 313.098 C 242.188 315.725,243.242 317.578,244.738 317.578 C 245.762 317.578,246.159 317.229,247.275 315.346 C 247.684 314.655,248.713 313.652,249.562 313.116 C 250.411 312.580,251.221 311.955,251.362 311.727 C 251.948 310.779,255.491 309.375,257.311 309.369 C 258.339 309.366,259.443 309.193,259.766 308.984 C 260.743 308.353,262.425 308.523,262.663 309.277 M170.280 309.922 C 170.610 310.319,170.720 314.901,170.686 326.751 C 170.641 342.265,170.676 343.129,171.433 345.052 C 171.870 346.162,172.411 347.787,172.634 348.664 C 173.198 350.873,177.683 355.229,179.801 355.624 C 180.615 355.776,182.080 356.243,183.056 356.661 C 191.178 360.143,205.567 353.842,207.634 345.898 C 207.969 344.609,208.498 343.044,208.809 342.420 C 209.275 341.487,209.375 338.506,209.375 325.568 C 209.375 308.180,209.186 309.375,211.932 309.375 C 214.102 309.375,214.063 308.905,214.063 334.903 C 214.063 359.669,214.051 359.926,212.883 360.551 C 211.088 361.511,209.766 360.295,209.759 357.677 C 209.744 352.061,207.663 350.871,204.222 354.510 C 201.667 357.211,200.230 358.150,196.339 359.658 C 193.082 360.920,182.971 360.978,179.746 359.752 C 172.925 357.160,166.729 350.633,167.462 346.814 C 167.573 346.237,167.295 344.797,166.838 343.576 C 165.904 341.078,165.537 311.780,166.420 310.131 C 166.909 309.217,169.575 309.073,170.280 309.922 M312.031 336.406 C 312.616 336.991,312.669 344.885,312.102 346.926 C 311.467 349.211,309.170 351.695,304.527 355.117 C 302.477 356.629,295.959 357.218,289.565 356.470 C 282.947 355.696,277.995 348.180,280.611 342.881 C 281.689 340.697,284.309 337.893,285.287 337.875 C 285.752 337.866,287.100 337.434,288.281 336.914 C 290.782 335.814,311.006 335.381,312.031 336.406 " stroke="none" fill="#abdbef" fill-rule="evenodd"></path></g></svg>